<?xml version="1.0" encoding="utf-8"?>
<!-- Generator: Adobe Illustrator 25.0.1, SVG Export Plug-In . SVG Version: 6.00 Build 0)  -->
<svg version="1.1" id="Layer_1" xmlns="http://www.w3.org/2000/svg" xmlns:xlink="http://www.w3.org/1999/xlink" x="0px" y="0px"
	 viewBox="0 0 265.81 110.44" style="enable-background:new 0 0 265.81 110.44;" xml:space="preserve">
<style type="text/css">
	.st0{fill-rule:evenodd;clip-rule:evenodd;fill:#B3B3B3;}
</style>
<g>
	<path class="st0" d="M160.83,32.87c0,14.27-11.57,25.84-25.84,25.84c-7.51,0-14.26-3.23-18.98-8.34c3.56-2.5,13.82-1.94,16.61-0.96
		c17.32,5.3,19.75-9.88,19.75-9.88h-1.58c-3.15,10.45-19.18,6.15-21.47,6.15c-2.29,0-3.86,0.57-3.86,0.57l21.61-28.91h-26.91
		l-2.29,7.59l1.72,0.72c2-5.58,9.16-5.44,9.16-5.44h7.44l-21.82,28.2c-3.27-4.33-5.23-9.7-5.23-15.54
		c0-14.27,11.57-25.84,25.84-25.84C149.27,7.03,160.83,18.6,160.83,32.87L160.83,32.87z M71.82,80.18h5.7l-15.83,22h21.49l3.06-5.92
		c-2.9,2.68-10.05,2.68-10.05,2.68h-5.92l15.59-22.23H65.97l-2.42,5.47C66.57,80.18,71.82,80.18,71.82,80.18L71.82,80.18z
		 M89.31,76.71c0,0,1.49,1.12,1.49,3.8v15.41c0,0,0.67,7.37,10.95,7.37s10.39-8.15,10.39-8.15v-16.2c0,0,0.03-2.12,1.52-2.23h-7.48
		c0,0,1.49,0,1.49,2.35v15.08c0,0-0.34,5.59-5.81,5.59s-6.14-5.14-6.14-5.14v-14.3c0,0,0.03-3.57,1.19-3.57L89.31,76.71L89.31,76.71
		z M140.69,102.18c-6.19,2.01-10.01-3.24-10.01-3.24l-5.59-7.37h-0.67v7.48c0.11,2.9,1.52,3.13,1.52,3.13h-8.38
		c1.74,0,2.17-3.13,2.17-3.13V80.4c0-2.57-1.5-3.69-1.5-3.69h9.72c0,0,9.09,0.11,9.09,7.15c0,5.7-6.59,7.15-6.59,7.15
		C138.38,101.17,140.69,102.18,140.69,102.18L140.69,102.18z M131.79,83.97c0-4.69-7.26-4.02-7.26-4.02v9.27
		C124.53,89.22,131.79,89.89,131.79,83.97L131.79,83.97z M143.26,76.71c0,0,1.49,0.11,1.49,4.02v17.76c0,0,0.03,3.69-1.83,3.69h7.59
		c0,0-1.3,0-1.3-4.02V80.73c0,0,0.02-4.02,1.63-4.02L143.26,76.71L143.26,76.71z M176.14,81.96v-4.69c0,0-2.68-1.12-6.14-1.12
		c-5.14,0-15.3,2.12-15.3,14.07s11.62,13.18,13.63,13.18c2.01,0,5.92-0.78,7.6-1.79v-5.03c0,0-1.79,2.9-6.93,2.9
		s-9.16-4.47-9.16-9.49c0-5.03,4.02-10.17,9.72-10.17C173.79,79.84,176.14,81.96,176.14,81.96L176.14,81.96z M202.5,98.16V80.73
		c0,0,0.03-4.02,1.63-4.02h-7.59c0,0,1.49,0.11,1.49,4.02v6.59h-11.5v-6.59c0,0,0.02-4.02,1.63-4.02h-7.59c0,0,1.49,0.11,1.49,4.02
		v17.76c0,0,0.03,3.69-1.83,3.69h7.59c0,0-1.3,0-1.3-4.02v-7.48h11.5v7.82c0,0,0.03,3.69-1.83,3.69h7.59
		C203.79,102.18,202.5,102.18,202.5,98.16L202.5,98.16z"/>
</g>
</svg>
