<?xml version="1.0" encoding="utf-8"?>
<!-- Generator: Adobe Illustrator 25.0.1, SVG Export Plug-In . SVG Version: 6.00 Build 0)  -->
<svg version="1.1" id="Layer_1" xmlns="http://www.w3.org/2000/svg" xmlns:xlink="http://www.w3.org/1999/xlink" x="0px" y="0px"
	 viewBox="0 0 265.81 110.44" style="enable-background:new 0 0 265.81 110.44;" xml:space="preserve">
<style type="text/css">
	.st0{fill-rule:evenodd;clip-rule:evenodd;fill:#B3B3B3;}
</style>
<g>
	<g>
		<g>
			<path class="st0" d="M53.6,46.54c3.78,0.51,6.85,6.03,7.36,8.99c0.41,2.04-1.12,4.29-2.66,4.29h-4.7v-2.45h4.09
				c2.86-0.92-1.63-7.15-3.06-8.07c-0.31-0.31-0.72-0.41-1.02-0.41L53.6,46.54L53.6,46.54z M49.62,43.68
				c1.53,0.61,2.76,1.43,3.37,2.86c0.2,0,0.41,0,0.61,0v2.35c-0.2,0-0.51,0.1-0.61,0.41l-3.37,5.62v-4.7
				c0.61-1.23,1.02-2.25,1.02-2.96c-0.2-0.31-0.61-0.61-1.02-0.82V43.68L49.62,43.68z M53.6,59.82h-3.98v-2.45h3.98V59.82z
				 M44.82,42.96c1.63,0,3.37,0.2,4.8,0.71v2.76c-1.23-0.82-3.06-1.12-4.8-1.12V42.96L44.82,42.96z M49.62,59.82h-3.68v7.56h-1.12
				v-9.91c0.31,0,0.51-0.2,0.71-0.61c1.23-2.04,2.96-4.6,4.09-6.64v4.7l-0.41,0.71c-0.41,0.51-1.12,1.74,0,1.74h0.41V59.82z
				 M43.59,59.82h-3.68v-2.45h0.51c1.02,0,0.31-1.23,0-1.74l-0.51-0.61v-5.11c1.12,2.25,2.86,5.11,4.19,6.95
				c0.1,0.41,0.41,0.61,0.71,0.61v9.91h-1.23v-7.56C43.58,59.82,43.59,59.82,43.59,59.82z M39.92,43.78
				c1.43-0.51,3.17-0.82,4.9-0.82v2.35c-1.94,0-3.78,0.41-4.9,0.92V43.78z M39.92,59.82h-3.98v-2.45h3.98V59.82L39.92,59.82z
				 M35.93,46.54c0.2,0,0.41,0,0.61,0c0-1.12,1.43-2.15,3.37-2.76v2.45c-0.61,0.31-1.02,0.61-1.02,1.02
				c0.1,0.61,0.51,1.63,1.02,2.66v5.11l-3.37-5.72c-0.1-0.31-0.31-0.41-0.61-0.41V46.54z M35.93,59.82h-4.5
				c-1.43,0-3.37-1.84-2.76-4.29c0,0,1.63-8.38,7.25-8.99v2.35c-0.31,0-0.61,0.1-1.02,0.41c-1.43,0.92-5.93,7.15-2.96,8.07h3.98
				v2.45H35.93z"/>
			<path class="st0" d="M43.59,59.82H31.44c-1.43,0-3.37-1.84-2.76-4.29c0,0,1.74-8.99,7.87-8.99c0-3.37,13.59-5.93,16.45,0
				c4.09,0,7.46,5.82,7.97,8.99c0.41,2.04-1.12,4.29-2.66,4.29H45.94v7.56h-2.35V59.82L43.59,59.82z M49.21,57.37
				c-1.12,0-0.41-1.23,0-1.74l3.78-6.33c0.31-0.61,1.02-0.51,1.64,0c1.43,0.92,5.92,7.15,3.06,8.07L49.21,57.37L49.21,57.37z
				 M38.89,47.25c0-1.74,9.09-3.17,11.75,0c0,2.04-3.17,6.44-5.11,9.6c-0.41,0.82-1.12,0.82-1.43,0
				C42.16,53.99,39.3,49.3,38.89,47.25L38.89,47.25z M40.43,57.37c1.02,0,0.31-1.23,0-1.74l-3.88-6.33c-0.31-0.61-0.92-0.51-1.63,0
				c-1.43,0.92-5.93,7.15-2.96,8.07C31.96,57.37,40.43,57.37,40.43,57.37z"/>
		</g>
		<path class="st0" d="M44.82,30.7c13.48,0,24.52,11.03,24.52,24.52c0,13.48-11.03,24.52-24.52,24.52v-2.45
			c12.05,0,21.96-9.91,21.96-22.07s-9.91-22.07-21.96-22.07V30.7z M44.82,30.7L44.82,30.7v2.45l0,0c-12.16,0-22.07,9.91-22.07,22.07
			s9.91,22.07,22.07,22.07l0,0v2.45l0,0c-13.59,0-24.62-11.04-24.62-24.52C20.2,41.74,31.23,30.7,44.82,30.7z"/>
	</g>
	<g>
		<polygon class="st0" points="88.75,67.04 80.04,67.04 80.04,43.4 88.75,43.4 94.57,55.22 100.28,43.4 109.04,43.4 109.04,67.04 
			100.28,67.04 100.28,55.22 94.57,67.04 88.75,55.22 		"/>
		<g>
			<path class="st0" d="M126.33,63.1h4.63l1.13,3.94h8.72l-6.8-23.64h-7.68V47l3.55,12.21h-3.55V63.1z M111.8,67.04h8.77l1.08-3.94
				h4.68v-3.89h-3.59L126.33,47v-3.6h-7.73L111.8,67.04z"/>
			<path class="st0" d="M111.8,67.04h8.77l1.08-3.94h9.31l1.13,3.94h8.72l-6.8-23.64H118.6L111.8,67.04L111.8,67.04z M122.74,59.21
				h7.14L126.33,47L122.74,59.21z"/>
		</g>
		<g>
			<path class="st0" d="M155.19,43.4h4.73c3.84,0,6.8,3.4,6.85,7.04c0.05,3-2.41,6.7-6.85,6.7h-4.73v-3.99
				c1.58-0.3,2.96-2.22,2.96-3.64c0-1.97-1.23-3.05-2.96-3.3V43.4z M152.23,67.04h-8.72V43.4h11.67v2.81
				c-0.2-0.05-0.44-0.05-0.69-0.05h-2.27v6.99h2.61c0.1,0,0.25,0,0.35,0v3.99h-2.95V67.04z"/>
			<path class="st0" d="M152.23,67.04h-8.72V43.4h16.4c3.84,0,6.8,3.4,6.85,7.04c0.05,3-2.41,6.7-6.85,6.7h-7.68V67.04L152.23,67.04
				z M152.23,46.16v6.99h2.61c1.72,0,3.3-2.12,3.3-3.64c0-2.22-1.58-3.35-3.64-3.35C154.5,46.16,152.23,46.16,152.23,46.16z"/>
		</g>
		<polygon class="st0" points="169.62,43.4 192.81,43.4 192.81,47.24 178.43,47.24 178.43,53.15 192.81,53.15 192.81,57.14 
			178.43,57.14 178.43,67.04 169.62,67.04 		"/>
		<polygon class="st0" points="222.41,43.4 245.61,43.4 245.61,47.24 231.08,47.24 231.08,53.15 245.61,53.15 245.61,57.14 
			231.08,57.14 231.08,63.1 245.61,63.1 245.61,67.04 222.41,67.04 		"/>
		<g>
			<path class="st0" d="M207.69,43.4h6.01c3.25,0,5.61,3.3,5.47,6.25c-0.15,3-2.86,5.56-5.47,5.56c2.66,0,5.27,2.76,5.47,5.47v6.35
				h-8.67v-6.35c0-1.77-1.23-2.76-2.81-3.2V53.1c1.72-0.3,2.81-2.46,2.81-3.65c0-1.77-1.28-3.1-2.81-3.35V43.4z M204.88,67.04h-8.91
				V43.4h11.72v2.71c-0.15,0-0.3,0-0.44,0h-2.36v7.04h2.36c0.15,0,0.3,0,0.44-0.05v4.38c-0.89-0.25-1.82-0.35-2.81-0.35V67.04z"/>
			<path class="st0" d="M204.88,67.04h-8.91V43.4h17.73c3.25,0,5.61,3.3,5.47,6.25c-0.15,3-2.86,5.56-5.47,5.56
				c2.66,0,5.27,2.76,5.47,5.47v6.35h-8.67v-6.35c0-2.76-2.86-3.55-5.61-3.55L204.88,67.04L204.88,67.04z M207.24,46.11h-2.36v7.04
				h2.36c1.97,0,3.25-2.41,3.25-3.69C210.49,47.49,208.92,46.11,207.24,46.11z"/>
		</g>
	</g>
</g>
</svg>
