<?xml version="1.0" encoding="utf-8"?>
<!-- Generator: Adobe Illustrator 25.0.1, SVG Export Plug-In . SVG Version: 6.00 Build 0)  -->
<svg version="1.1" id="Layer_1" xmlns="http://www.w3.org/2000/svg" xmlns:xlink="http://www.w3.org/1999/xlink" x="0px" y="0px"
	 viewBox="0 0 265.81 110.44" style="enable-background:new 0 0 265.81 110.44;" xml:space="preserve">
<style type="text/css">
	.st0{fill:#B3B3B3;}
	.st1{fill:#808080;}
</style>
<g>
	<g>
		<path class="st0" d="M80.56,6.23v98.02h104.69V6.23H80.56z M156.88,97.78c-0.33-2.27-0.63-3.33-1.07-4.63l-3.3-10.53h-14.67
			l-2.63,3.47l2.37,7.13c0.47,1.5,0.97,2.67,1.83,4.57h-8.33l-1.37-4.57l-3.33,4.57h-6.7l-1.43-4.53l-3.53,4.53h-6.27h-0.43
			c0.17-0.13,0.3-0.27,0.43-0.4c1.7-1.5,2.77-2.87,3.7-4.1l4.27-5.6l-1.67-5.07h-14.63L88.69,97.78h-7.1c2.7-2.33,3.4-3.07,4.4-4.4
			l21.66-28.63c0.3-0.4,0.57-0.8,0.8-1.23c0.4-0.67,0.77-1.43,0.97-2.37h7.03c0,1.57,0.23,2.43,0.57,3.63l4.93,15.46l2.53-3.33
			l-4.03-12.3c-0.3-0.9-0.67-2.07-1.4-3.47h8.53c0.23,1.37,0.47,2.47,0.83,3.67l1.57,4.83l3.67-4.87c0.83-1.13,1.97-2.4,2.47-3.63
			h7.47c-1.47,1.17-2.4,2.4-3.3,3.57l-8.27,10.97l1.43,4.53l11.83-15.46c0.3-0.47,0.63-0.87,0.97-1.3c0.43-0.67,0.8-1.37,1.03-2.3
			h6.97c0.1,1.23,0.27,2.3,0.6,3.43l8.97,28.6c0.43,1.53,0.73,2.47,1.87,4.6C165.69,97.78,156.88,97.78,156.88,97.78z"/>
		<polygon class="st0" points="103.46,78.09 113.46,78.09 110.42,68.85 		"/>
		<polygon class="st0" points="123.79,85.88 125.39,90.95 127.95,87.58 126.19,82.62 		"/>
		<polygon class="st0" points="141.42,78.09 151.08,78.09 148.05,68.85 		"/>
	</g>
	<polygon class="st1" points="137.85,59.29 143.98,59.29 184.05,6.19 177.91,6.19 	"/>
</g>
</svg>
