<?xml version="1.0" encoding="utf-8"?>
<!-- Generator: Adobe Illustrator 25.0.1, SVG Export Plug-In . SVG Version: 6.00 Build 0)  -->
<svg version="1.1" id="Layer_1" xmlns="http://www.w3.org/2000/svg" xmlns:xlink="http://www.w3.org/1999/xlink" x="0px" y="0px"
	 viewBox="0 0 265.81 110.44" style="enable-background:new 0 0 265.81 110.44;" xml:space="preserve">
<style type="text/css">
	.st0{fill:#B3B3B3;}
	.st1{fill:#CCCCCC;}
	.st2{fill:#999999;}
	.st3{fill:#E6E6E6;}
</style>
<g>
	<polygon class="st0" points="97.55,58.18 37.84,58.18 67.69,87.48 	"/>
	<polygon class="st1" points="97.55,58.18 82.71,42.79 67.14,57.99 	"/>
	<polygon class="st2" points="82.71,42.79 52.49,42.79 37.84,58.18 67.14,58.18 	"/>
	<polygon class="st3" points="82.71,42.79 67.69,27.59 52.49,42.79 	"/>
	<path class="st0" d="M94.61,28.73h3.16v-2.06c0,0-0.14-3.71-6.04-3.71c0,0-5.36-0.14-5.36,5.08v7.97c0,0,0.96,4.4,5.36,4.4
		c0,0,5.49,0.55,5.91-1.24v-7.42h-5.49v2.2h2.06v4.26c0,0-3.57,1.24-4.26-1.79V27.5c0,0,0.27-2.2,2.75-2.2
		C92.69,25.3,94.61,25.3,94.61,28.73z"/>
	<polygon class="st0" points="137.61,23.65 128.41,23.65 128.41,40.41 137.75,40.41 137.75,37.8 131.98,37.8 131.98,32.85 
		136.92,32.85 136.92,30.38 132.12,30.38 132.12,25.99 137.47,25.99 	"/>
	<polygon class="st0" points="109.86,23.65 100.66,23.65 100.66,40.41 110,40.41 110,37.8 104.23,37.8 104.23,32.85 109.18,32.85 
		109.18,30.38 104.37,30.38 104.37,25.99 109.73,25.99 	"/>
	<polygon class="st0" points="116.18,40.55 112.47,40.55 112.47,23.65 117.28,23.65 122.09,34.64 122.09,23.24 125.66,23.24 
		125.66,40.55 121.13,40.55 116.04,28.46 	"/>
	<path class="st0" d="M147.78,32.17c3.3-0.69,3.16-4.53,3.16-4.53c0-3.3-3.02-4.12-3.02-4.12h-7.56v16.9h3.43l0.14-7.14
		c4.12-0.27,3.5,2.34,3.5,2.34v4.81h3.23v-4.4C150.66,32.72,147.78,32.17,147.78,32.17z M146.2,30.93h-2.54v-4.95h2.68
		c0,0,1.37,0.69,1.37,2.47C147.71,28.46,147.84,30.18,146.2,30.93z"/>
	<path class="st0" d="M162.06,23.51h-4.46l-4.74,17.03h3.71l0.82-4.12h4.67l0.89,3.85h4.12L162.06,23.51z M158.01,33.82l1.58-7.14
		l1.92,7.14H158.01z"/>
	<polygon class="st0" points="172.5,23.31 168.93,23.31 168.93,40.41 177.86,40.41 177.86,37.52 172.43,37.52 	"/>
	<path class="st0" d="M112.56,46.27h-7.1v16.74l6.18,0.11c4.12-1.1,4.58-5.22,4.58-5.22v-5.49
		C116.23,47.28,112.56,46.27,112.56,46.27z M113.55,57.64c0,0-0.22,2.89-2.51,2.89l-3.23-0.06v-11.8h3.62c0,0,2.12,0.69,2.12,3.52
		V57.64z"/>
	<path class="st0" d="M146.61,50.78c0,0,0.62-5.01-4.6-5.01c0,0-4.9-0.14-5.49,3.85c0,0-0.85,3.48,2.2,4.81
		c1.34,0.59,4.34,2.43,4.6,3.64c0.17,0.82,1.17,2.27-1.58,2.95c0,0-2.47,0.89-2.61-3.09h-3.23c0,0,0.07,5.15,4.26,5.49
		c0,0,6.04,1.17,6.8-4.26c0,0,0.64-4.09-3.16-5.36c-1.3-0.43-4.4-1.17-4.26-3.43c0,0-0.34-2.4,2.13-2.47c0,0,2.2-0.07,1.92,2.95
		L146.61,50.78z"/>
	<path class="st0" d="M227.59,50.78c0,0,0.62-5.01-4.6-5.01c0,0-4.26-0.14-5.49,3.85c0,0-0.96,3.78,2.2,4.81c0,0,4.67,2.4,4.6,3.64
		c0,0,1.17,2.27-1.58,2.95c0,0-2.47,0.89-2.61-3.09h-3.23c0,0,0.07,5.15,4.26,5.49c0,0,6.04,1.17,6.8-4.26c0,0,0.64-4.09-3.16-5.36
		c-1.3-0.43-4.4-1.17-4.26-3.43c0,0-0.34-2.4,2.13-2.47c0,0,2.2-0.07,1.92,2.95L227.59,50.78z"/>
	<polygon class="st0" points="158.35,48.86 158.35,46.11 149.63,46.11 149.63,63.28 158.63,63.28 158.63,60.67 152.52,60.67 
		152.52,55.38 158.15,55.38 158.15,52.84 152.65,52.84 152.65,48.93 	"/>
	<path class="st0" d="M167.01,56.82v-2.75h5.29v8.86c0,0-1.65,0.76-5.91,0.55c0,0-4.6-0.07-5.29-4.88v-8.52c0,0,0.76-4.4,5.63-4.4
		c0,0,5.77-0.48,5.77,5.49h-3.37c0,0,0.34-3.16-2.75-3.16c0,0-1.85-0.07-1.85,2.75v8.17c0,0,0.48,2.2,2.68,2.2s1.92-0.62,1.92-0.62
		V56.8h-2.12V56.82z"/>
	<path class="st0" d="M178.82,46.04h-3.37c0,0-0.29,9.7,0,12.91c0.15,1.73,0.82,4.6,5.22,4.6c0,0,5.98,0.21,5.98-4.67
		c0-3.23,0-12.91,0-12.91h-3.57c0,0,0,8.96,0,11.95c0,0.98,0,3.02-2.47,3.02c0,0-1.93,0-1.92-1.92
		C178.7,55.78,178.82,46.04,178.82,46.04z"/>
	<path class="st0" d="M197.23,54.76c2.88,0,3.16-4.12,3.16-4.12c0-4.05-2.95-4.6-2.95-4.6h-7.9v17.45h3.64l0.07-7.62
		c2.88-0.69,3.5,1.37,3.5,1.37v6.32h3.57v-5.63C200.25,54.83,197.23,54.76,197.23,54.76z M195.44,53.6h-2.47v-4.88h2.4
		c0,0,1.58,0.55,1.58,2.06C196.95,50.78,197.23,52.91,195.44,53.6z"/>
	<path class="st0" d="M208.46,45.9c-3.13,0-5.67,2.4-5.67,5.36v6.8c0,2.96,2.54,5.36,5.67,5.36s5.67-2.4,5.67-5.36v-6.8
		C214.12,48.3,211.59,45.9,208.46,45.9z M210.76,58.68c0,1.14-1,2.06-2.23,2.06s-2.23-0.92-2.23-2.06v-8.52c0-1.14,1-2.06,2.23-2.06
		s2.23,0.92,2.23,2.06V58.68z"/>
	<polygon class="st0" points="128.68,48.86 128.68,46.11 119.96,46.11 119.96,63.28 128.96,63.28 128.96,60.67 122.84,60.67 
		122.84,55.38 128.48,55.38 128.48,52.84 122.98,52.84 122.98,48.93 	"/>
</g>
</svg>
