<?xml version="1.0" encoding="utf-8"?>
<!-- Generator: Adobe Illustrator 25.0.1, SVG Export Plug-In . SVG Version: 6.00 Build 0)  -->
<svg version="1.1" id="Layer_1" xmlns="http://www.w3.org/2000/svg" xmlns:xlink="http://www.w3.org/1999/xlink" x="0px" y="0px"
	 viewBox="0 0 265.81 110.44" style="enable-background:new 0 0 265.81 110.44;" xml:space="preserve">
<style type="text/css">
	.st0{fill:#B3B3B3;}
	.st1{fill:none;stroke:#B3B3B3;stroke-width:2;stroke-miterlimit:10;}
	.st2{fill-rule:evenodd;clip-rule:evenodd;fill:#B3B3B3;}
</style>
<g>
	<path class="st0" d="M181.81,99.9v-0.92l0.06,0.03c0.6,0,1.09-0.23,1.46-0.66c0.37-0.43,0.57-1.01,0.57-1.67
		c0-0.74-0.2-1.35-0.63-1.84c-0.37-0.46-0.86-0.69-1.46-0.72V93.2h0.09c0.49,0,0.92,0.09,1.32,0.23c0.4,0.17,0.75,0.4,1.06,0.75
		c0.32,0.32,0.55,0.66,0.72,1.06c0.17,0.4,0.23,0.8,0.23,1.26s-0.09,0.92-0.26,1.32c-0.17,0.43-0.43,0.78-0.75,1.12
		c-0.31,0.29-0.72,0.55-1.15,0.72C182.67,99.82,182.24,99.9,181.81,99.9L181.81,99.9z M186.43,99.56l-0.49-1.41
		c0.46,0.32,0.92,0.55,1.32,0.72c0.4,0.17,0.78,0.23,1.15,0.23c0.46,0,0.8-0.09,1.09-0.26c0.26-0.17,0.4-0.4,0.4-0.72
		c0-0.37-0.46-0.75-1.38-1.12c-0.23-0.09-0.4-0.14-0.55-0.2c-0.52-0.23-0.92-0.49-1.18-0.78c-0.23-0.29-0.37-0.63-0.37-1
		c0-0.57,0.23-1.01,0.66-1.32c0.43-0.34,1-0.49,1.75-0.49c0.26,0,0.52,0,0.8,0.06c0.29,0.03,0.57,0.09,0.89,0.14v1.12
		c-0.32-0.17-0.63-0.29-0.92-0.37c-0.32-0.09-0.6-0.11-0.89-0.11c-0.31,0-0.57,0.06-0.77,0.2c-0.17,0.14-0.29,0.32-0.29,0.55
		c0,0.34,0.4,0.66,1.18,0.92c0.32,0.14,0.57,0.23,0.78,0.32c0.54,0.23,0.95,0.52,1.2,0.78c0.26,0.29,0.37,0.63,0.37,1
		c0,0.63-0.26,1.15-0.8,1.55c-0.55,0.37-1.29,0.57-2.21,0.57c-0.32,0-0.63-0.03-0.92-0.09C186.98,99.79,186.72,99.7,186.43,99.56z
		 M181.81,93.22v0.92c0,0-0.03,0-0.06,0c-0.57,0-1.06,0.23-1.44,0.66c-0.37,0.4-0.57,0.95-0.57,1.58c0,0.77,0.2,1.41,0.6,1.89
		c0.37,0.49,0.86,0.72,1.46,0.72v0.92c-0.03,0-0.06,0-0.09,0c-0.49,0-0.92-0.06-1.32-0.23c-0.37-0.14-0.75-0.37-1.06-0.72
		c-0.32-0.32-0.55-0.66-0.72-1.06c-0.14-0.4-0.23-0.83-0.23-1.26c0-0.46,0.09-0.92,0.26-1.32c0.17-0.43,0.43-0.77,0.77-1.12
		c0.32-0.32,0.69-0.55,1.12-0.72C180.95,93.3,181.38,93.22,181.81,93.22L181.81,93.22z M162.64,102.83v-0.75c0.09,0,0.17,0,0.26,0
		c0.66,0,1.2-0.17,1.66-0.46c0.43-0.31,0.66-0.69,0.66-1.12c0-0.4-0.2-0.72-0.57-0.95c-0.37-0.23-0.95-0.34-1.66-0.34
		c-0.06,0-0.17,0.03-0.34,0.03v-0.77c0.12,0,0.29,0,0.46,0c0.2-0.03,0.34-0.03,0.43-0.03c0.89,0,1.61,0.17,2.15,0.55
		c0.55,0.37,0.8,0.83,0.8,1.38c0,0.72-0.34,1.32-1.06,1.78c-0.69,0.46-1.61,0.69-2.73,0.69h-0.06V102.83z M162.64,97.87V97
		c0.06,0,0.09,0,0.12,0c0.43,0,0.75-0.11,1.03-0.4c0.26-0.26,0.4-0.57,0.4-0.97c0-0.46-0.17-0.83-0.46-1.12
		c-0.31-0.29-0.66-0.43-1.09-0.46v-0.83c0.09,0,0.17,0,0.29,0c0.23,0,0.57,0,1.03,0.03c0.46,0.03,0.8,0.06,1.01,0.06
		c0.2,0,0.4-0.03,0.66-0.06c0.26-0.03,0.54-0.06,0.89-0.11l-0.4,1c-0.03,0.03-0.06,0.03-0.12,0.03s-0.11,0-0.23,0
		c-0.17,0-0.37,0-0.63-0.03c-0.23-0.03-0.49-0.06-0.8-0.08c0.4,0.2,0.69,0.46,0.89,0.72c0.17,0.29,0.26,0.57,0.26,0.95
		c0,0.4-0.11,0.75-0.34,1.06c-0.26,0.31-0.6,0.57-1.03,0.74c-0.37,0.14-0.77,0.26-1.2,0.29c-0.03,0.03-0.03,0.03-0.06,0.03h-0.03
		C162.76,97.83,162.7,97.83,162.64,97.87L162.64,97.87z M171.48,98.87c-0.32,0.34-0.63,0.57-0.95,0.75c-0.31,0.17-0.66,0.26-1,0.26
		c-0.69,0-1.23-0.23-1.66-0.66c-0.43-0.43-0.66-0.97-0.66-1.66v-2.93c0-0.29-0.03-0.52-0.09-0.69c-0.09-0.2-0.2-0.37-0.34-0.52h0.17
		c0.26,0,0.49,0,0.75-0.03c0.23-0.03,0.49-0.06,0.72-0.09v3.56c0,0.69,0.14,1.18,0.37,1.49c0.23,0.32,0.63,0.46,1.15,0.46
		c0.54,0,0.95-0.14,1.18-0.43s0.37-0.77,0.37-1.43v-2.32c0-0.29-0.06-0.52-0.11-0.69c-0.09-0.2-0.17-0.37-0.34-0.52h0.17
		c0.2,0,0.46,0,0.69-0.03s0.49-0.06,0.77-0.09v5.05c0,0.29,0.03,0.52,0.11,0.72c0.06,0.17,0.17,0.35,0.32,0.46h-0.12
		c-0.17,0-0.37,0.03-0.6,0.06c-0.23,0.03-0.49,0.06-0.8,0.12L171.48,98.87L171.48,98.87z M177.65,94.59
		c-0.09-0.06-0.2-0.11-0.29-0.14c-0.12-0.03-0.23-0.06-0.34-0.06c-0.46,0-0.78,0.17-1.03,0.46c-0.23,0.32-0.34,0.75-0.34,1.35v2.32
		c0,0.29,0.03,0.52,0.11,0.69c0.06,0.2,0.17,0.34,0.32,0.49h-2.06c0.17-0.14,0.29-0.29,0.34-0.49c0.06-0.17,0.12-0.4,0.12-0.69v-3.9
		c0-0.29-0.06-0.52-0.12-0.69c-0.06-0.2-0.17-0.37-0.34-0.52h0.14c0.2,0,0.43,0,0.66-0.03c0.23-0.03,0.49-0.06,0.75-0.09l0.11,0.97
		c0.17-0.31,0.38-0.57,0.63-0.74c0.23-0.14,0.52-0.23,0.8-0.23c0.08,0,0.17,0,0.26,0c0.06,0.03,0.17,0.03,0.29,0.06v1.24H177.65z
		 M162.64,93.22v0.83c-0.03,0-0.06,0-0.09,0c-0.46,0-0.8,0.11-1.06,0.37s-0.38,0.57-0.38,0.98c0,0.46,0.14,0.83,0.46,1.15
		c0.29,0.29,0.66,0.43,1.06,0.46v0.86c-0.35,0.06-0.52,0.17-0.52,0.34c0,0.08,0.03,0.17,0.08,0.2c0.09,0.06,0.2,0.06,0.38,0.06h0.06
		v0.77h-0.17c-0.26,0-0.52,0-0.75,0c-0.32,0-0.57-0.06-0.77-0.17c-0.17-0.11-0.26-0.29-0.26-0.52c0-0.23,0.09-0.4,0.26-0.57
		c0.17-0.14,0.43-0.26,0.77-0.34c-0.57-0.12-1.03-0.37-1.38-0.75c-0.34-0.4-0.49-0.86-0.49-1.38c0-0.69,0.26-1.26,0.8-1.66
		C161.15,93.48,161.81,93.27,162.64,93.22L162.64,93.22z M162.64,102.08v0.75c-1,0-1.84-0.2-2.47-0.54c-0.66-0.37-1-0.83-1-1.38
		c0-0.32,0.12-0.57,0.34-0.77c0.26-0.2,0.54-0.29,0.89-0.29c0.09,0,0.2,0,0.29,0.03c0.12,0.03,0.26,0.06,0.4,0.12
		c-0.2,0.03-0.32,0.09-0.43,0.2c-0.09,0.12-0.15,0.29-0.15,0.49c0,0.37,0.23,0.72,0.69,0.98
		C161.61,101.91,162.1,102.05,162.64,102.08L162.64,102.08z M155.9,99.9v-1.03c0.26,0.06,0.52,0.11,0.8,0.11
		c0.32,0,0.66-0.06,1.03-0.17s0.77-0.29,1.18-0.52l-0.66,1.21c-0.37,0.14-0.72,0.26-1.03,0.32c-0.32,0.09-0.6,0.11-0.89,0.11
		C156.19,99.93,156.04,99.93,155.9,99.9L155.9,99.9z M155.9,96.4v-0.86h1.66c-0.03-0.46-0.2-0.8-0.49-1.09
		c-0.29-0.29-0.66-0.43-1.09-0.43c-0.03,0-0.06,0-0.09,0v-0.86c0.06,0,0.11,0,0.17,0c0.86,0,1.55,0.29,2.06,0.89
		c0.52,0.57,0.78,1.38,0.78,2.35H155.9z M146,99.5l-0.4-1.64c0.49,0.37,1,0.63,1.46,0.77c0.49,0.17,0.97,0.26,1.43,0.26
		c0.6,0,1.09-0.11,1.46-0.37c0.34-0.29,0.55-0.63,0.55-1.03c0-0.14-0.03-0.26-0.06-0.37c-0.06-0.11-0.09-0.23-0.17-0.34
		c-0.17-0.23-0.69-0.57-1.61-1.03c-0.23-0.11-0.4-0.2-0.54-0.29c-0.86-0.43-1.43-0.83-1.75-1.21c-0.31-0.37-0.49-0.8-0.49-1.32
		c0-0.72,0.29-1.29,0.89-1.72c0.57-0.43,1.38-0.63,2.38-0.63c0.29,0,0.6,0,0.95,0.06c0.37,0.03,0.75,0.09,1.15,0.17v1.49
		c-0.37-0.26-0.72-0.49-1.09-0.6c-0.37-0.14-0.75-0.23-1.15-0.23c-0.49,0-0.89,0.12-1.21,0.35c-0.32,0.23-0.46,0.49-0.46,0.86
		c0,0.32,0.11,0.57,0.37,0.83c0.23,0.23,0.77,0.55,1.61,0.95c0.03,0.03,0.11,0.06,0.2,0.12c0.72,0.34,1.23,0.63,1.61,0.92
		c0.26,0.2,0.46,0.46,0.6,0.75c0.14,0.32,0.2,0.6,0.2,0.95c0,0.77-0.34,1.43-1.03,1.95c-0.69,0.55-1.55,0.8-2.58,0.8
		c-0.34,0-0.69-0.03-1.06-0.11C146.86,99.76,146.46,99.64,146,99.5L146,99.5z M155.9,93.16v0.86c-0.43,0.03-0.8,0.14-1.09,0.4
		s-0.49,0.63-0.54,1.12h1.63v0.86h-1.72c0.03,0.8,0.29,1.4,0.75,1.86c0.26,0.29,0.6,0.49,0.98,0.6v1.03
		c-0.83-0.06-1.52-0.37-2.1-0.92c-0.66-0.63-1-1.43-1-2.41c0-1,0.32-1.81,0.92-2.44C154.29,93.5,155.04,93.19,155.9,93.16z"/>
	<line class="st1" x1="74.61" y1="106.22" x2="191.19" y2="106.22"/>
	<path class="st2" d="M83.76,23.39l3.33-2.11l3.5,2.14l-0.14-1.19l-2.1-1.43c0,0-0.75-0.65-0.81-1.32l-0.1-14.93
		c0,0-0.1-0.34-0.4-0.34c-0.34,0-0.44,0.2-0.44,0.34l0.03,14.9c0,0,0,0.31-0.44,0.75l-2.51,1.97v1.22
		C83.68,23.39,83.76,23.39,83.76,23.39z"/>
	<path class="st2" d="M90.95,25.33l-3.46-2.17c0,0-0.54-0.34-0.54-0.71l-3.12,2.17c0,0-0.07,0.08-0.17,0.19l-0.02,1.26l3.35-2.12
		l4.28,2.75L90.95,25.33z"/>
	<path class="st2" d="M81.79,29.67l5.09-2.78l6.59,3.82l-0.01-1.11l-6.01-3.66c0,0-0.48-0.44-0.48-0.78l-4.72,2.75
		c0,0-0.34,0.57-0.81,0.67v1.09C81.44,29.67,81.79,29.67,81.79,29.67z"/>
	<path class="st2" d="M93.48,31.97l-5.86-3.32c0,0-0.58-0.44-0.58-0.78l-5.53,3.22c0,0-0.06,0.25-0.25,0.43l-0.58,1.37h0.19
		l6.11-3.36l6.52,3.63L93.48,31.97z"/>
	<path class="st2" d="M87.08,30.42l-6.62,3.67c0,0-0.14,0.44-0.55,0.66l-0.27,1.31l7.26-3.9l8.33,4.33l-0.01-1.11l-7.74-4.31
		C87.49,31.06,87.08,30.76,87.08,30.42z"/>
	<path class="st2" d="M95.26,38.12l-7.63-3.77c0,0-0.51-0.58-0.65-1.09l-7.35,3.94l-0.04,1.95l7.49-3.86l8.19,4.18L95.26,38.12z"/>
	<path class="st2" d="M95.3,41.24l-7.4-3.63c0,0-0.81-0.41-0.81-1.02l-7.51,3.79l-0.04,1.9l7.55-3.76l8.23,4.03L95.3,41.24z"/>
	<path class="st2" d="M95.33,44.34l-7.44-3.47c0,0-0.71-0.31-0.78-0.88l-7.6,3.57l-0.04,1.89l7.64-3.49l8.23,3.68L95.33,44.34z"/>
	<path class="st2" d="M95.37,47.51l-7.24-3.04c0,0-0.85-0.31-1.05-1.19l-7.62,3.28l-0.04,1.93l7.59-3.13l8.37,3.34L95.37,47.51z"/>
	<path class="st2" d="M95.4,50.74l-7.26-2.95c0,0-0.82-0.27-0.95-1.25l-7.79,3.3l-0.04,1.87l7.41-3.17L95.4,52V50.74z"/>
	<path class="st2" d="M95.4,54l-7.13-2.82c0,0-0.71,0-1.12-1.25l-7.74,2.98c0,0-0.03,0.04-0.07,0.11l-0.04,1.9l7.68-2.82l8.48,3.06
		L95.4,54z"/>
	<path class="st2" d="M95.46,56.95l-7.26-2.51c0,0-0.88-0.24-1.19-1.15l-7.6,2.78c0,0-0.04,0.09-0.13,0.22l-0.03,1.76l8.07-2.59
		l8.18,2.82L95.46,56.95z"/>
	<path class="st2" d="M95.46,60.21L88.3,57.9c0,0-0.95-0.24-1.15-1.19l-7.77,2.55c0,0-0.05,0.11-0.16,0.25l-0.03,1.85l8.1-2.38
		l8.21,2.44L95.46,60.21z"/>
	<path class="st2" d="M95.46,63.33l-7.2-2.04c0,0-0.88-0.2-1.19-1.26l-7.84,2.34c0,0-0.03,0.06-0.08,0.15l-0.04,1.98h0.01l8.08-2.27
		l8.35,2.31L95.46,63.33z"/>
	<path class="st2" d="M95.5,66.42l-7.26-1.87c0,0-0.85-0.2-1.15-1.05l-7.8,2.04c0,0-0.04,0.15-0.17,0.33l-0.04,1.89l8.08-2.12
		l8.41,2.07L95.5,66.42z"/>
	<path class="st2" d="M95.5,69.64l-7.23-1.76c0,0-1.08-0.24-1.08-0.98l-8.14,2l-0.03,1.85l8.27-1.82l8.28,1.87L95.5,69.64z"/>
	<path class="st2" d="M95.6,72.8l-7.26-1.39c0,0-0.88-0.2-1.19-1.12l-8.11,1.7c0,0-0.01,0.09-0.05,0.21l-0.03,1.79l8.3-1.59
		l8.38,1.53L95.6,72.8z"/>
	<path class="st2" d="M95.72,76.06l-7.21-1.29c0,0-0.98-0.14-1.36-1.02l-7.87,1.29c0,0-0.1,0.24-0.35,0.47l-0.03,1.48l-0.07,0.1
		h0.45l8.21-1.25l8.25,1.42L95.72,76.06z"/>
	<path class="st2" d="M87.18,76.94l-9.16,1.31l-1.43,2.07v0.01h0.78l10.15-1.29l10.14,1.49l-0.03-1.18l-9.09-1.29
		C88.54,78.06,87.59,77.92,87.18,76.94z"/>
	<path class="st2" d="M97.7,83.63v-1.31V82.3l-9.09-0.92c0,0-1.15-0.2-1.29-1.15l-9.91,1.15c0,0-0.21,0.52-0.82,0.76v1.38h0.95
		l10.32-1.08L97.7,83.63z"/>
	<path class="st2" d="M97.8,86.78l-0.03-1.29l-8.79-0.68c0,0-1.22,0.14-1.6-1.12l-9.95,0.78c0,0-0.22,0.67-0.85,0.93v1.31h0.21
		l11.37-0.75L97.8,86.78z"/>
	<path class="st2" d="M87.32,87.02l-10.73,0.67v0.14l-1.85,1.96v0.19h0.8l13.06-0.47l12.3,0.57l-0.02-1.29l-12.11-0.51
		C88.78,88.27,87.72,88.27,87.32,87.02z"/>
	<path class="st2" d="M74.75,93.18l13.76-0.23l12.45,0.2l-0.02-1.19l-11.92-0.1c0,0-1.15,0.03-1.63-1.4l-12.25,0.38
		c0,0-0.09,0.3-0.39,0.57C74.75,91.41,74.75,93.18,74.75,93.18z"/>
	<path class="st2" d="M74.75,96.18h0.86l12.83,0.41L101,96.35l-0.02-1.26l-12.1,0.1c0,0-1.12,0.1-1.56-0.99H75.41
		c0,0-0.18,0.32-0.66,0.51V96.18z"/>
	<path class="st2" d="M74.75,97.77v1.6h0.86l12.69,0.81l12.75-0.61l-0.02-1.22L88.3,98.52c0,0-0.81,0.1-0.85-0.82L75,97.34
		C75,97.34,74.94,97.57,74.75,97.77z"/>
	<path class="st2" d="M88.91,102.09c0,0-1.29,0.14-1.53-0.92l-12.25-0.71c0,0-0.09,0.25-0.39,0.45v1.44l12.92,1.04l13.43-0.83
		l-0.02-1.32L88.91,102.09z"/>
	<path class="st0" d="M106.41,84.98c-0.23,0-0.52-0.03-0.83-0.06c-0.31-0.03-0.69-0.09-1.09-0.14v-7.2c0-0.52,0.06-0.92,0.14-1.17
		c0.09-0.23,0.26-0.46,0.49-0.66h-2.9c0.23,0.2,0.4,0.43,0.49,0.66c0.09,0.26,0.14,0.66,0.14,1.17v6.72c0,0.52-0.06,0.92-0.14,1.18
		c-0.08,0.2-0.26,0.43-0.49,0.63h6.37l0.75-2.01c-0.46,0.32-0.92,0.52-1.41,0.66C107.44,84.9,106.95,84.98,106.41,84.98z
		 M116.25,84.78c-0.2-0.2-0.29-0.69-0.29-1.49v-1.75c0-0.72-0.06-1.23-0.17-1.58c-0.14-0.32-0.34-0.6-0.66-0.83
		c-0.23-0.17-0.52-0.29-0.83-0.37c-0.29-0.09-0.63-0.14-1.01-0.14c-0.2,0-0.4,0-0.63,0.03c-0.23,0.03-0.49,0.06-0.75,0.09
		l-0.98,1.55c0.37-0.17,0.75-0.32,1.06-0.4c0.34-0.11,0.63-0.14,0.89-0.14c0.52,0,0.92,0.09,1.23,0.29
		c0.29,0.17,0.43,0.43,0.43,0.75c0,0.23-0.11,0.43-0.32,0.57c-0.23,0.14-0.69,0.29-1.38,0.46c-0.11,0.03-0.29,0.06-0.49,0.08
		c-1.03,0.23-1.7,0.52-2.01,0.83c-0.17,0.17-0.32,0.37-0.4,0.6c-0.08,0.23-0.14,0.46-0.14,0.72c0,0.63,0.26,1.18,0.75,1.63
		c0.49,0.4,1.09,0.6,1.84,0.6c0.02,0,0.05,0,0.07,0c1.27,0.02,2.04-0.59,2.33-0.89c0.07,0.11,0.16,0.21,0.26,0.28
		c0.32,0.29,0.83,0.4,1.58,0.4l0.63-0.95C116.77,85.1,116.42,84.98,116.25,84.78z M114.2,85.07c-0.22,0.06-0.42,0.08-0.59,0.11
		c-0.12,0.02-0.22,0.03-0.31,0.05c-0.12,0.01-0.21,0.01-0.24,0.01c-0.49-0.01-0.87-0.12-1.17-0.37c-0.31-0.23-0.49-0.52-0.49-0.92
		c0-0.57,0.95-1.12,2.81-1.63c0.17-0.06,0.29-0.09,0.37-0.09v2.15c0,0.18,0.01,0.35,0.04,0.5C114.5,84.96,114.35,85.02,114.2,85.07z
		"/>
	<path class="st0" d="M158.8,72.39c0.43,0,0.77-0.17,1.09-0.46c0.29-0.32,0.43-0.69,0.43-1.12s-0.14-0.8-0.46-1.12
		c-0.29-0.32-0.66-0.46-1.06-0.46c-0.43,0-0.8,0.14-1.12,0.46c-0.32,0.32-0.46,0.69-0.46,1.12s0.14,0.8,0.46,1.12
		C157.97,72.21,158.34,72.39,158.8,72.39z M128.21,84.61c-0.4,0-0.86-0.03-1.41-0.09c-0.55-0.03-1.15-0.11-1.84-0.23V71.93
		c0-0.89,0.06-1.55,0.23-1.98c0.14-0.43,0.43-0.8,0.8-1.15h-4.85c0.37,0.34,0.63,0.72,0.8,1.15c0.17,0.43,0.26,1.09,0.26,1.98v11.53
		c0,0.89-0.09,1.55-0.26,1.98c-0.17,0.4-0.43,0.8-0.8,1.15h10.73l1.23-3.47c-0.77,0.52-1.55,0.89-2.35,1.12
		C129.96,84.49,129.1,84.61,128.21,84.61z M160.09,84.26V73.85c-0.4,0.09-0.86,0.14-1.38,0.2c-0.52,0.03-1.15,0.06-1.89,0.08
		c0.32,0.29,0.55,0.6,0.69,0.98c0.14,0.37,0.2,0.83,0.2,1.41v7.75c0,0.57-0.06,1.01-0.2,1.38c-0.14,0.34-0.37,0.66-0.69,0.95h4.16
		c-0.31-0.29-0.54-0.6-0.69-0.95C160.15,85.27,160.09,84.84,160.09,84.26z M174.81,84.26v-5.85c0-1.35-0.43-2.44-1.29-3.3
		c-0.86-0.83-1.98-1.26-3.36-1.26c-0.72,0-1.41,0.17-2.07,0.49c-0.63,0.31-1.26,0.83-1.92,1.49l-0.11-1.98
		c-0.55,0.09-1.03,0.17-1.49,0.2c-0.49,0.06-0.92,0.08-1.32,0.08h-0.29c0.29,0.29,0.52,0.6,0.66,0.98c0.14,0.37,0.2,0.83,0.2,1.41
		v7.75c0,0.57-0.06,1.01-0.2,1.38c-0.11,0.34-0.34,0.66-0.66,0.95h4.16c-0.32-0.29-0.55-0.6-0.69-0.95c-0.12-0.37-0.2-0.8-0.2-1.38
		v-4.65c0-1.32,0.26-2.27,0.72-2.84c0.49-0.57,1.26-0.86,2.38-0.86c1.06,0,1.84,0.32,2.32,0.92c0.49,0.63,0.72,1.64,0.72,2.98v4.45
		c0,0.57-0.06,1.01-0.2,1.38c-0.14,0.34-0.37,0.66-0.69,0.95h4.19c-0.32-0.29-0.55-0.6-0.66-0.95
		C174.87,85.27,174.81,84.84,174.81,84.26z M190.7,77.78c-0.34-0.8-0.8-1.52-1.43-2.15c-0.63-0.63-1.35-1.12-2.15-1.44
		c-0.77-0.32-1.66-0.49-2.64-0.49h-0.17c-0.86,0.03-1.72,0.2-2.55,0.52c-0.86,0.34-1.64,0.83-2.27,1.43
		c-0.69,0.66-1.21,1.38-1.55,2.21s-0.55,1.72-0.55,2.67c0,0.83,0.17,1.66,0.52,2.47c0.35,0.77,0.8,1.49,1.44,2.12
		c0.66,0.63,1.35,1.12,2.15,1.43c0.78,0.29,1.67,0.46,2.64,0.46c0.06,0,0.12,0,0.17-0.03c0.89,0,1.75-0.17,2.55-0.49
		c0.86-0.34,1.63-0.8,2.27-1.38c0.69-0.66,1.2-1.38,1.55-2.21c0.34-0.83,0.52-1.72,0.52-2.67C191.19,79.39,191.02,78.55,190.7,77.78
		z M187.35,83.92c-0.75,0.86-1.72,1.29-2.93,1.29h-0.11c-1.2-0.03-2.21-0.52-2.98-1.43c-0.8-0.98-1.18-2.24-1.18-3.79
		c0-1.26,0.37-2.32,1.15-3.15c0.78-0.86,1.72-1.26,2.9-1.26h0.11c1.21,0.03,2.18,0.49,2.96,1.41c0.83,0.95,1.23,2.15,1.23,3.62
		C188.5,81.97,188.12,83.06,187.35,83.92z M151.28,70.15h-0.75c-0.06,1.46-0.37,2.61-0.95,3.47c-0.57,0.86-1.38,1.32-2.38,1.4v0.92
		h1.66v7.26c0,1.23,0.32,2.18,0.95,2.78c0.63,0.63,1.58,0.95,2.81,0.95c0.17,0,0.4-0.03,0.75-0.06c0.03,0,0.06,0,0.06,0l1.26-1.81
		c-0.2,0.06-0.4,0.09-0.6,0.11c-0.2,0.03-0.37,0.06-0.54,0.06c-0.78,0-1.35-0.26-1.72-0.78s-0.54-1.35-0.54-2.44v-6.08h1.78
		c0.46,0,0.86,0.06,1.15,0.15c0.29,0.06,0.55,0.2,0.75,0.37v-2.33h-3.67v-3.97H151.28z M144.15,81.88v-2.94
		c0-1.2-0.1-2.07-0.29-2.65c-0.24-0.53-0.58-1.01-1.11-1.4c-0.39-0.29-0.87-0.48-1.4-0.63c-0.48-0.14-1.06-0.24-1.69-0.24
		c-0.34,0-0.68,0-1.06,0.05c-0.39,0.05-0.82,0.1-1.25,0.14l-1.64,2.6c0.63-0.29,1.25-0.53,1.78-0.67c0.58-0.19,1.06-0.24,1.5-0.24
		c0.87,0,1.54,0.14,2.07,0.48c0.48,0.29,0.72,0.72,0.72,1.26c0,0.39-0.19,0.72-0.53,0.96c-0.39,0.24-1.16,0.48-2.31,0.77
		c-0.19,0.05-0.48,0.1-0.82,0.14c-1.74,0.39-2.85,0.87-3.38,1.4c-0.29,0.29-0.53,0.63-0.68,1.01c-0.14,0.39-0.24,0.77-0.24,1.2
		c0,1.06,0.43,1.98,1.25,2.75c0.82,0.67,1.83,1.01,3.08,1.01c0.04,0,0.08,0,0.12,0c2.14,0.04,3.43-1,3.92-1.49
		c0.12,0.19,0.26,0.36,0.44,0.48c0.53,0.48,1.4,0.67,2.65,0.67l1.06-1.59c-0.87-0.05-1.45-0.24-1.74-0.58
		C144.3,84.05,144.15,83.23,144.15,81.88z M141.18,84.88c-0.37,0.09-0.7,0.14-0.99,0.19c-0.2,0.03-0.36,0.06-0.52,0.07
		c-0.2,0.01-0.35,0.02-0.41,0.02c-0.82-0.01-1.46-0.21-1.97-0.62c-0.53-0.39-0.82-0.87-0.82-1.54c0-0.96,1.59-1.88,4.72-2.75
		c0.29-0.1,0.48-0.14,0.63-0.14v3.62c0,0.3,0.03,0.58,0.07,0.84C141.7,84.69,141.45,84.8,141.18,84.88z"/>
</g>
</svg>
