<?xml version="1.0" encoding="utf-8"?>
<!-- Generator: Adobe Illustrator 25.0.1, SVG Export Plug-In . SVG Version: 6.00 Build 0)  -->
<svg version="1.1" id="Layer_1" xmlns="http://www.w3.org/2000/svg" xmlns:xlink="http://www.w3.org/1999/xlink" x="0px" y="0px"
	 viewBox="0 0 265.81 110.44" style="enable-background:new 0 0 265.81 110.44;" xml:space="preserve">
<style type="text/css">
	.st0{fill:#B3B3B3;}
</style>
<g>
	<path class="st0" d="M193.07,28.95c0,6.64-5.38,12.02-12.02,12.02s-12.02-5.38-12.02-12.02s5.38-12.02,12.02-12.02
		S193.07,22.31,193.07,28.95z"/>
	<path class="st0" d="M110.07,51.58c10.35-2.53,44.19-4.68,68.26,1.57c3.9,1.01,13.38,3.78,14.19,10.08c0,0,1.31,4.66-10.24,10.19
		c-11.52,5.52-21.16,8.79-28.94,11.1c-7.43,2.2-21.01,5.86-25.51,6.7c-3.8,0.71-11.81,2.39-15.98,2.28
		c-2.94-0.08-1.15-1.56,0.85-2.71c3.64-2.11,13.83-5.57,19.17-7.33c5.34-1.76,22.26-7.7,25.91-9.07c4.35-1.64,12.51-5.24,14.91-6.87
		c2.86-1.94,6.2-4.91,2.9-6.81c-2.89-1.67-5.69-2.01-11.92-2.88c-6.16-0.86-20.71-1.42-24.75-1.46c-4.01-0.04-12.8-0.39-15.23-0.42
		c-1.7-0.02-14.02-0.76-15.69-1.85C106.82,53.33,106.88,52.36,110.07,51.58z"/>
	<path class="st0" d="M86.83,61.13h-7.15L73.44,78.8h6.79l0.51-2.23h4.8l0.63,2.23h6.79L86.83,61.13z M81.76,72.43l1.43-6.06
		l1.34,6.06H81.76z"/>
	<path class="st0" d="M131.87,61.13h-7.15l-6.24,17.67h6.79l0.51-2.23h4.8l0.63,2.23H138L131.87,61.13z M126.8,72.43l1.43-6.06
		l1.34,6.06H126.8z"/>
	<polygon class="st0" points="97.17,78.8 97.17,61.13 103.27,61.13 108.73,70.22 108.73,61.13 114.83,61.13 114.83,78.8 
		108.73,78.8 103.27,69.66 103.27,78.8 	"/>
	<g>
		<path class="st0" d="M72.74,83.87h0.97c0,0.16,0.03,0.27,0.1,0.31c0.05,0.03,0.11,0.05,0.19,0.05c0.08,0.01,0.32,0.01,0.72,0.01
			c0.42,0,0.68,0,0.76-0.01c0.08,0,0.15-0.02,0.2-0.04c0.07-0.03,0.11-0.11,0.11-0.25c0-0.1-0.03-0.16-0.08-0.2
			c-0.05-0.03-0.16-0.05-0.32-0.05c-0.12,0-0.38-0.01-0.78-0.03c-0.41-0.02-0.67-0.03-0.8-0.03c-0.24-0.01-0.42-0.03-0.55-0.07
			c-0.13-0.04-0.23-0.1-0.3-0.18c-0.12-0.14-0.18-0.38-0.18-0.71c0-0.37,0.07-0.63,0.21-0.78c0.11-0.12,0.27-0.19,0.49-0.23
			c0.22-0.03,0.67-0.05,1.36-0.05c0.48,0,0.82,0.01,1.02,0.04c0.3,0.04,0.51,0.13,0.62,0.25c0.11,0.13,0.17,0.34,0.17,0.64
			c0,0.03,0,0.08,0,0.15h-0.97c0-0.09-0.01-0.15-0.02-0.19c-0.01-0.03-0.04-0.06-0.07-0.08c-0.04-0.03-0.12-0.04-0.23-0.05
			s-0.34-0.01-0.69-0.01c-0.42,0-0.68,0.01-0.78,0.04c-0.09,0.03-0.14,0.1-0.14,0.22s0.05,0.19,0.14,0.21
			c0.08,0.02,0.43,0.04,1.06,0.06c0.53,0.02,0.88,0.03,1.06,0.06c0.18,0.02,0.32,0.06,0.43,0.12c0.12,0.07,0.2,0.17,0.25,0.3
			c0.05,0.13,0.07,0.31,0.07,0.54c0,0.31-0.04,0.54-0.12,0.69c-0.06,0.11-0.15,0.19-0.26,0.25c-0.11,0.05-0.27,0.09-0.47,0.11
			C75.68,84.99,75.28,85,74.69,85c-0.49,0-0.86-0.01-1.09-0.04c-0.24-0.03-0.41-0.07-0.53-0.14c-0.12-0.07-0.21-0.16-0.26-0.28
			c-0.05-0.12-0.07-0.29-0.07-0.53C72.74,84.01,72.74,83.87,72.74,83.87z"/>
		<path class="st0" d="M79.37,81.68H83v0.77h-2.65v0.47h2.51v0.72h-2.51v0.53h2.67v0.79h-3.65C79.37,84.96,79.37,81.68,79.37,81.68z
			"/>
		<path class="st0" d="M87.6,83.1h2.28c0,0.05,0,0.08,0,0.09c0,0.46-0.01,0.81-0.04,1.04c-0.04,0.38-0.25,0.61-0.64,0.69
			c-0.17,0.03-0.36,0.06-0.58,0.07C88.41,85,88.08,85,87.63,85c-0.56,0-0.96-0.02-1.2-0.05c-0.23-0.03-0.42-0.09-0.55-0.18
			c-0.09-0.06-0.16-0.14-0.21-0.24c-0.05-0.1-0.08-0.23-0.1-0.39c-0.02-0.15-0.03-0.44-0.03-0.88c0-0.3,0.01-0.52,0.02-0.68
			c0.02-0.15,0.05-0.29,0.09-0.41c0.09-0.25,0.3-0.41,0.6-0.46c0.34-0.06,0.85-0.09,1.55-0.09c0.41,0,0.74,0.01,0.98,0.03
			c0.24,0.02,0.44,0.06,0.59,0.1c0.25,0.08,0.4,0.25,0.46,0.51c0.03,0.13,0.04,0.31,0.04,0.54h-1c0-0.09-0.01-0.16-0.02-0.19
			c-0.01-0.03-0.03-0.06-0.06-0.08c-0.06-0.04-0.17-0.07-0.35-0.07c-0.17-0.01-0.41-0.01-0.73-0.01c-0.35,0-0.59,0.01-0.74,0.02
			c-0.15,0.02-0.25,0.05-0.3,0.09c-0.05,0.04-0.09,0.12-0.11,0.22c-0.02,0.1-0.03,0.28-0.03,0.52c0,0.28,0.01,0.47,0.03,0.58
			s0.06,0.19,0.11,0.23s0.13,0.07,0.21,0.08c0.09,0.01,0.36,0.02,0.83,0.02c0.45,0,0.73-0.01,0.83-0.01
			c0.1-0.01,0.18-0.02,0.24-0.04c0.05-0.02,0.08-0.05,0.1-0.1c0.02-0.05,0.03-0.12,0.03-0.21c0-0.01,0-0.04,0-0.09H87.6V83.1z"/>
		<path class="st0" d="M92.53,81.68h1v1.51c0,0.35,0.02,0.56,0.04,0.66c0.03,0.13,0.11,0.21,0.25,0.25s0.42,0.06,0.85,0.06
			c0.35,0,0.59-0.01,0.72-0.03c0.13-0.02,0.23-0.06,0.28-0.12c0.04-0.04,0.06-0.09,0.08-0.15c0.02-0.06,0.03-0.16,0.03-0.31
			c0.01-0.15,0.01-0.27,0.01-0.36v-1.51h1v1.51c-0.01,0.52-0.03,0.87-0.05,1.03c-0.04,0.28-0.17,0.48-0.39,0.61
			c-0.13,0.07-0.31,0.12-0.54,0.15C95.58,84.99,95.2,85,94.68,85c-0.4,0-0.7-0.01-0.92-0.02c-0.21-0.01-0.4-0.04-0.56-0.08
			c-0.35-0.08-0.56-0.29-0.61-0.63c-0.02-0.13-0.04-0.25-0.04-0.35c-0.01-0.11-0.01-0.35-0.01-0.73v-1.51H92.53z"/>
		<path class="st0" d="M99.51,84.96v-3.28h2.41c0.57,0,0.91,0.01,1.02,0.02c0.11,0.01,0.22,0.05,0.32,0.11
			c0.12,0.08,0.21,0.18,0.26,0.31s0.07,0.34,0.07,0.62c0,0.24-0.01,0.41-0.04,0.53c-0.03,0.11-0.09,0.2-0.17,0.27
			c-0.09,0.07-0.22,0.12-0.4,0.15c0.21,0.02,0.36,0.08,0.45,0.18c0.05,0.06,0.09,0.14,0.1,0.23c0.01,0.09,0.02,0.27,0.02,0.56v0.31
			h-0.98v-0.18c0-0.18-0.01-0.31-0.02-0.39c-0.01-0.08-0.04-0.14-0.08-0.18s-0.09-0.06-0.15-0.07c-0.06-0.01-0.2-0.02-0.41-0.02
			h-1.41v0.83H99.51z M100.51,83.3h1.4c0.24,0,0.39-0.01,0.44-0.01s0.09-0.02,0.12-0.04c0.04-0.03,0.07-0.07,0.09-0.12
			s0.03-0.13,0.03-0.24s-0.01-0.19-0.03-0.24c-0.02-0.05-0.05-0.09-0.1-0.12c-0.04-0.02-0.08-0.03-0.13-0.03
			c-0.05,0-0.19-0.01-0.42-0.01h-1.4C100.51,82.49,100.51,83.3,100.51,83.3z"/>
		<path class="st0" d="M108.41,81.63c0.71,0,1.19,0.02,1.46,0.05c0.38,0.05,0.62,0.23,0.7,0.55c0.06,0.21,0.09,0.58,0.09,1.09
			c0,0.51-0.03,0.88-0.09,1.09c-0.09,0.31-0.32,0.49-0.7,0.55c-0.27,0.04-0.75,0.05-1.45,0.05c-0.71,0-1.2-0.02-1.47-0.05
			c-0.38-0.05-0.62-0.23-0.7-0.55c-0.06-0.21-0.09-0.58-0.09-1.11c0-0.5,0.03-0.86,0.09-1.07c0.09-0.31,0.32-0.49,0.7-0.55
			C107.21,81.65,107.7,81.63,108.41,81.63z M108.41,82.48c-0.53,0-0.85,0.01-0.96,0.04c-0.12,0.03-0.2,0.1-0.24,0.22
			c-0.04,0.11-0.06,0.33-0.06,0.66c0,0.2,0.01,0.35,0.03,0.43c0.04,0.17,0.16,0.26,0.36,0.29c0.15,0.02,0.44,0.03,0.87,0.03
			c0.4,0,0.67-0.01,0.8-0.02c0.13-0.01,0.23-0.05,0.3-0.1c0.06-0.04,0.1-0.11,0.12-0.2c0.02-0.09,0.03-0.23,0.03-0.43
			c0-0.24-0.01-0.41-0.02-0.52c-0.02-0.11-0.04-0.19-0.09-0.25c-0.05-0.07-0.14-0.11-0.26-0.13
			C109.17,82.49,108.88,82.48,108.41,82.48z"/>
		<path class="st0" d="M113.21,83.87h0.97c0,0.16,0.03,0.27,0.1,0.31c0.05,0.03,0.11,0.05,0.19,0.05c0.08,0.01,0.32,0.01,0.72,0.01
			c0.42,0,0.68,0,0.76-0.01c0.08,0,0.15-0.02,0.2-0.04c0.07-0.03,0.11-0.11,0.11-0.25c0-0.1-0.03-0.16-0.08-0.2
			c-0.05-0.03-0.16-0.05-0.32-0.05c-0.12,0-0.38-0.01-0.78-0.03c-0.41-0.02-0.67-0.03-0.8-0.03c-0.24-0.01-0.42-0.03-0.55-0.07
			c-0.13-0.04-0.23-0.1-0.3-0.18c-0.12-0.14-0.18-0.38-0.18-0.71c0-0.37,0.07-0.63,0.21-0.78c0.11-0.12,0.27-0.19,0.49-0.23
			c0.22-0.03,0.67-0.05,1.36-0.05c0.48,0,0.82,0.01,1.02,0.04c0.3,0.04,0.51,0.13,0.62,0.25c0.11,0.13,0.17,0.34,0.17,0.64
			c0,0.03,0,0.08,0,0.15h-0.97c0-0.09-0.01-0.15-0.02-0.19c-0.01-0.03-0.04-0.06-0.07-0.08c-0.04-0.03-0.12-0.04-0.23-0.05
			s-0.34-0.01-0.69-0.01c-0.42,0-0.68,0.01-0.78,0.04c-0.09,0.03-0.14,0.1-0.14,0.22s0.05,0.19,0.14,0.21
			c0.08,0.02,0.43,0.04,1.06,0.06c0.53,0.02,0.88,0.03,1.06,0.06c0.18,0.02,0.32,0.06,0.43,0.12c0.12,0.07,0.2,0.17,0.25,0.3
			c0.05,0.13,0.07,0.31,0.07,0.54c0,0.31-0.04,0.54-0.12,0.69c-0.06,0.11-0.15,0.19-0.26,0.25c-0.11,0.05-0.27,0.09-0.47,0.11
			c-0.22,0.02-0.62,0.03-1.21,0.03c-0.49,0-0.86-0.01-1.09-0.04c-0.24-0.03-0.41-0.07-0.53-0.14c-0.12-0.07-0.21-0.16-0.26-0.28
			c-0.05-0.12-0.07-0.29-0.07-0.53L113.21,83.87L113.21,83.87z"/>
	</g>
</g>
</svg>
