<?xml version="1.0" encoding="utf-8"?>
<!-- Generator: Adobe Illustrator 25.0.1, SVG Export Plug-In . SVG Version: 6.00 Build 0)  -->
<svg version="1.1" id="Layer_1" xmlns="http://www.w3.org/2000/svg" xmlns:xlink="http://www.w3.org/1999/xlink" x="0px" y="0px"
	 viewBox="0 0 265.81 110.44" style="enable-background:new 0 0 265.81 110.44;" xml:space="preserve">
<style type="text/css">
	.st0{fill-rule:evenodd;clip-rule:evenodd;fill:#B3B3B3;}
	.st1{fill:#B3B3B3;}
</style>
<g>
	<path class="st0" d="M37.4,85.22c0.61,0,1.12,0,1.61,0c0-0.58,0-1.09,0-1.59c-0.58,0-1.08,0-1.61,0
		C37.4,84.19,37.4,84.68,37.4,85.22z"/>
	<path class="st0" d="M37.4,85.22c0-0.54,0-1.03,0-1.59c0.53,0,1.03,0,1.61,0c0,0.5,0,1.01,0,1.59
		C38.52,85.22,38.01,85.22,37.4,85.22z"/>
	<path class="st0" d="M34.45,85.24c-0.58,0-1.07,0-1.61,0c0-0.55,0-1.06,0-1.63c0.54,0,1.05,0,1.61,0
		C34.45,84.16,34.45,84.67,34.45,85.24z"/>
	<path class="st0" d="M43.62,85.24c-0.58,0-1.07,0-1.61,0c0-0.55,0-1.06,0-1.63c0.54,0,1.05,0,1.61,0
		C43.62,84.16,43.62,84.67,43.62,85.24z"/>
	<path class="st0" d="M48.11,85.24c-0.58,0-1.07,0-1.61,0c0-0.55,0-1.06,0-1.63c0.54,0,1.05,0,1.61,0
		C48.11,84.16,48.11,84.67,48.11,85.24z"/>
	<g>
		<path class="st1" d="M230.26,61.81c0.51,0,1.02,0.13,1.51,0.4c0.49,0.26,0.87,0.64,1.14,1.13s0.41,1,0.41,1.54
			c0,0.53-0.13,1.04-0.4,1.52c-0.27,0.49-0.65,0.87-1.13,1.13c-0.49,0.27-0.99,0.4-1.52,0.4s-1.04-0.13-1.52-0.4
			c-0.49-0.27-0.86-0.65-1.13-1.13c-0.27-0.49-0.41-0.99-0.41-1.52s0.14-1.05,0.41-1.54s0.66-0.87,1.15-1.13
			C229.24,61.94,229.75,61.81,230.26,61.81z M230.26,62.31c-0.43,0-0.85,0.11-1.26,0.33c-0.41,0.22-0.73,0.54-0.96,0.95
			c-0.23,0.41-0.35,0.84-0.35,1.28s0.11,0.86,0.34,1.27c0.23,0.4,0.54,0.72,0.95,0.95c0.41,0.23,0.83,0.34,1.27,0.34
			s0.86-0.11,1.27-0.34c0.41-0.23,0.72-0.54,0.95-0.95c0.22-0.4,0.34-0.83,0.34-1.27c0-0.44-0.11-0.87-0.34-1.28
			c-0.23-0.41-0.55-0.73-0.96-0.95C231.11,62.42,230.69,62.31,230.26,62.31z M228.92,66.56v-3.3h1.13c0.39,0,0.67,0.03,0.84,0.09
			s0.31,0.17,0.41,0.32s0.15,0.31,0.15,0.48c0,0.24-0.09,0.45-0.26,0.63s-0.4,0.28-0.68,0.3c0.12,0.05,0.21,0.11,0.28,0.17
			c0.13,0.13,0.29,0.35,0.49,0.65l0.4,0.65h-0.65l-0.29-0.52c-0.23-0.41-0.42-0.66-0.56-0.77c-0.1-0.08-0.24-0.11-0.43-0.11h-0.31
			v1.4L228.92,66.56L228.92,66.56z M229.45,64.71h0.65c0.31,0,0.52-0.05,0.63-0.14s0.17-0.21,0.17-0.37c0-0.1-0.03-0.18-0.08-0.26
			c-0.05-0.08-0.13-0.13-0.23-0.17c-0.1-0.04-0.27-0.06-0.53-0.06h-0.6L229.45,64.71L229.45,64.71z"/>
	</g>
	<g>
		<path class="st1" d="M228.71,81.63c0.26,0,0.51,0.07,0.75,0.2s0.43,0.32,0.57,0.56c0.14,0.24,0.2,0.5,0.2,0.76
			s-0.07,0.52-0.2,0.76c-0.13,0.24-0.32,0.43-0.56,0.56c-0.24,0.13-0.49,0.2-0.76,0.2c-0.26,0-0.52-0.07-0.76-0.2
			c-0.24-0.13-0.43-0.32-0.56-0.56s-0.2-0.49-0.2-0.76c0-0.27,0.07-0.52,0.21-0.76c0.14-0.24,0.33-0.43,0.57-0.56
			C228.21,81.69,228.46,81.63,228.71,81.63z M228.71,81.88c-0.21,0-0.42,0.05-0.63,0.17c-0.2,0.11-0.36,0.27-0.48,0.47
			c-0.11,0.2-0.17,0.42-0.17,0.64s0.06,0.43,0.17,0.63s0.27,0.36,0.47,0.47s0.41,0.17,0.63,0.17s0.43-0.06,0.63-0.17
			c0.2-0.11,0.36-0.27,0.47-0.47c0.11-0.2,0.17-0.41,0.17-0.63c0-0.22-0.06-0.43-0.17-0.64c-0.11-0.2-0.27-0.36-0.48-0.47
			C229.14,81.94,228.93,81.88,228.71,81.88z M228.05,84v-1.64h0.56c0.19,0,0.33,0.01,0.42,0.05c0.09,0.03,0.15,0.08,0.21,0.16
			c0.05,0.08,0.08,0.15,0.08,0.24c0,0.12-0.04,0.22-0.13,0.31c-0.09,0.09-0.2,0.14-0.34,0.15c0.06,0.02,0.1,0.05,0.14,0.09
			c0.07,0.07,0.15,0.17,0.24,0.33l0.2,0.32h-0.32l-0.15-0.26c-0.11-0.2-0.21-0.33-0.28-0.38c-0.05-0.04-0.12-0.06-0.21-0.06h-0.16
			V84H228.05z M228.31,83.07h0.32c0.15,0,0.26-0.02,0.31-0.07c0.06-0.05,0.08-0.11,0.08-0.18c0-0.05-0.01-0.09-0.04-0.13
			s-0.06-0.07-0.11-0.09s-0.14-0.03-0.27-0.03h-0.3L228.31,83.07L228.31,83.07z"/>
	</g>
	<g>
		<path class="st0" d="M69.34,83.61c0,0.56,0,1.07,0,1.63c0.56,0,1.07,0,1.63,0c0-0.56,0-1.06,0-1.63
			C70.4,83.61,69.89,83.61,69.34,83.61z"/>
		<path class="st0" d="M89.23,85.24c0-0.57,0-1.08,0-1.63c-0.56,0-1.07,0-1.61,0c0,0.57,0,1.08,0,1.63
			C88.16,85.24,88.65,85.24,89.23,85.24z"/>
		<path class="st0" d="M69.34,83.61c0.56,0,1.06,0,1.63,0c0,0.56,0,1.07,0,1.63c-0.56,0-1.07,0-1.63,0
			C69.34,84.68,69.34,84.17,69.34,83.61z"/>
		<path class="st0" d="M88.19,25.22c-18.06,0-36.12,0-54.19,0c-1.19,0-1.52-0.22-1.52,0.96c0,18.06,0,36.12,0,54.19
			c0,1.13,0.33,0.97,1.46,0.97c18.09,0,36.18,0,54.27,0c1.09,0,1.07,0.16,1.07-0.91c0-9.03,0-18.06,0-27.09c0-9.06,0-18.12,0-27.18
			C89.29,25,89.31,25.22,88.19,25.22z M87.9,79.94c-18.01,0-35.65,0-53.33,0c-0.03-0.69-0.08-0.84-0.08-1.19
			c0-16.93,0-33.94,0-50.87c0-1.18,0-1.28,1.2-1.28c16.9,0,33.8,0,50.7,0c1.19,0,1.51,0.07,1.51,1.23c0,16.93,0,33.85,0,50.78
			C87.9,78.94,87.9,79.25,87.9,79.94z"/>
		<path class="st0" d="M68.14,76.97c1-0.03,1.72-0.52,2.39-1.14c3.3-3.04,6.6-6.08,9.91-9.11c0.45-0.41,0.77-0.87,0.38-1.43
			c-0.4-0.58-0.96-0.41-1.48-0.14c-3.75,1.9-7.77,2.72-11.93,2.72c-3.8,0-7.47-0.78-10.95-2.33c-4.35-1.93-8.69-3.88-13.03-5.82
			c-1.77-0.8-1.74-0.8-2.38,1.04c-0.27,0.77-0.13,1.19,0.6,1.6c8.32,4.68,16.63,9.39,24.94,14.08
			C67.07,76.69,67.63,76.79,68.14,76.97z"/>
		<path class="st0" d="M68.14,76.97c-0.51-0.18-1.07-0.28-1.54-0.54c-8.32-4.69-16.62-9.4-24.94-14.08c-0.73-0.41-0.87-0.83-0.6-1.6
			c0.64-1.83,0.6-1.83,2.38-1.04c4.34,1.95,8.68,3.89,13.03,5.82c3.48,1.55,7.15,2.33,10.95,2.33c4.17,0,8.18-0.81,11.93-2.72
			c0.53-0.27,1.09-0.43,1.48,0.14c0.39,0.57,0.07,1.02-0.38,1.43c-3.31,3.03-6.62,6.06-9.91,9.11
			C69.86,76.45,69.15,76.94,68.14,76.97z"/>
		<path class="st0" d="M84.66,85.24c-0.58,0-1.07,0-1.61,0c0-0.55,0-1.06,0-1.63c0.54,0,1.05,0,1.61,0
			C84.66,84.16,84.66,84.67,84.66,85.24z"/>
		<path class="st0" d="M51.09,85.24c0-0.55,0-1.06,0-1.63c0.54,0,1.05,0,1.61,0c0,0.55,0,1.05,0,1.63"/>
		<path class="st0" d="M57.23,85.24c-0.58,0-1.07,0-1.61,0c0-0.55,0-1.06,0-1.63c0.54,0,1.05,0,1.61,0
			C57.23,84.16,57.23,84.67,57.23,85.24z"/>
		<path class="st0" d="M61.77,85.24c-0.58,0-1.07,0-1.61,0c0-0.55,0-1.06,0-1.63c0.54,0,1.05,0,1.61,0
			C61.77,84.16,61.77,84.67,61.77,85.24z"/>
		<path class="st0" d="M64.81,85.24c0-0.55,0-1.06,0-1.63c0.54,0,1.05,0,1.61,0c0,0.55,0,1.05,0,1.63"/>
		<path class="st0" d="M75.54,85.24c-0.58,0-1.07,0-1.61,0c0-0.55,0-1.06,0-1.63c0.54,0,1.05,0,1.61,0
			C75.54,84.16,75.54,84.67,75.54,85.24z"/>
		<path class="st0" d="M80.1,85.24c-0.58,0-1.07,0-1.61,0c0-0.55,0-1.06,0-1.63c0.54,0,1.05,0,1.61,0
			C80.1,84.16,80.1,84.67,80.1,85.24z"/>
		<g>
			<path class="st1" d="M123.13,74.63h1.42c0.81,0,1.36,0.04,1.65,0.11c0.41,0.1,0.74,0.31,1,0.62c0.26,0.31,0.39,0.7,0.39,1.17
				s-0.13,0.87-0.38,1.17c-0.25,0.31-0.6,0.52-1.04,0.62c-0.32,0.08-0.93,0.12-1.81,0.12h-0.51v3.31h-0.71v-7.12H123.13z
				 M123.84,75.33v2.41l1.21,0.01c0.49,0,0.84-0.04,1.07-0.13s0.4-0.23,0.53-0.43s0.19-0.42,0.19-0.66c0-0.24-0.06-0.46-0.19-0.65
				c-0.13-0.2-0.3-0.34-0.51-0.42s-0.56-0.12-1.04-0.12h-1.26C123.84,75.34,123.84,75.33,123.84,75.33z"/>
			<path class="st1" d="M132.7,74.63l3.32,7.12h-0.77l-1.12-2.34h-3.07l-1.11,2.34h-0.79l3.36-7.12H132.7z M132.61,76.14l-1.22,2.58
				h2.43L132.61,76.14z"/>
			<path class="st1" d="M137.92,81.75v-7.12h0.15l4.74,5.46v-5.46h0.7v7.12h-0.16l-4.7-5.39v5.39H137.92z M142.16,73.09l0.34,0.47
				c-0.23,0.17-0.43,0.28-0.59,0.34s-0.33,0.09-0.51,0.09c-0.23,0-0.47-0.06-0.72-0.18c-0.21-0.1-0.34-0.16-0.4-0.18
				c-0.08-0.02-0.16-0.03-0.25-0.03c-0.11,0-0.22,0.02-0.32,0.06s-0.25,0.13-0.44,0.27l-0.32-0.49c0.29-0.32,0.66-0.47,1.09-0.47
				c0.21,0,0.45,0.07,0.74,0.2c0.27,0.13,0.49,0.19,0.65,0.19C141.6,73.35,141.85,73.26,142.16,73.09z"/>
			<path class="st1" d="M146.63,72.58h1.04l-1.43,1.49h-0.67L146.63,72.58z M145.94,74.63h0.71v7.12h-0.71V74.63z"/>
			<path class="st1" d="M151.99,74.63l3.32,7.12h-0.77l-1.12-2.34h-3.07l-1.11,2.34h-0.79l3.36-7.12H151.99z M151.9,76.14
				l-1.22,2.58h2.43L151.9,76.14z"/>
			<path class="st1" d="M160.74,81.75v-7.12h1.48c1.06,0,1.84,0.09,2.32,0.26c0.69,0.24,1.23,0.66,1.62,1.26s0.58,1.31,0.58,2.13
				c0,0.71-0.15,1.34-0.46,1.88c-0.31,0.54-0.71,0.94-1.2,1.2c-0.49,0.26-1.18,0.39-2.07,0.39
				C163.01,81.75,160.74,81.75,160.74,81.75z M161.42,81.08h0.82c0.98,0,1.67-0.06,2.05-0.18c0.54-0.17,0.96-0.49,1.26-0.94
				c0.31-0.45,0.46-1.01,0.46-1.66c0-0.69-0.17-1.27-0.5-1.76c-0.33-0.49-0.8-0.82-1.39-1c-0.45-0.14-1.18-0.2-2.2-0.2h-0.5
				L161.42,81.08L161.42,81.08z"/>
			<path class="st1" d="M168.92,74.63H173v0.7h-3.37v2.23h3.34v0.7h-3.34v2.8h3.34v0.7h-4.05V74.63z"/>
			<path class="st1" d="M177.82,80.42l0.6-0.36c0.43,0.78,0.92,1.18,1.48,1.18c0.24,0,0.46-0.06,0.67-0.17
				c0.21-0.11,0.37-0.26,0.48-0.45c0.11-0.19,0.16-0.39,0.16-0.6c0-0.24-0.08-0.47-0.24-0.7c-0.22-0.32-0.63-0.7-1.22-1.14
				c-0.59-0.45-0.96-0.77-1.11-0.97c-0.25-0.34-0.38-0.7-0.38-1.09c0-0.31,0.07-0.59,0.22-0.85c0.15-0.25,0.36-0.46,0.63-0.6
				c0.27-0.15,0.56-0.22,0.88-0.22c0.34,0,0.65,0.08,0.94,0.25c0.29,0.17,0.6,0.47,0.93,0.92l-0.58,0.44
				c-0.27-0.36-0.5-0.59-0.68-0.7c-0.19-0.11-0.39-0.17-0.62-0.17c-0.29,0-0.52,0.09-0.7,0.26c-0.18,0.17-0.27,0.39-0.27,0.64
				c0,0.15,0.03,0.31,0.1,0.45c0.06,0.15,0.18,0.3,0.35,0.47c0.09,0.09,0.4,0.33,0.92,0.71c0.62,0.46,1.04,0.86,1.27,1.22
				c0.23,0.36,0.34,0.71,0.34,1.07c0,0.52-0.2,0.97-0.59,1.35s-0.87,0.57-1.43,0.57c-0.43,0-0.82-0.12-1.18-0.35
				C178.44,81.35,178.12,80.97,177.82,80.42z"/>
			<path class="st1" d="M184.29,74.63h4.08v0.7H185v2.23h3.34v0.7H185v2.8h3.34v0.7h-4.05V74.63z"/>
			<path class="st1" d="M197.26,75.83l-0.55,0.52c-0.4-0.39-0.83-0.69-1.3-0.89s-0.93-0.3-1.38-0.3c-0.56,0-1.09,0.14-1.6,0.41
				c-0.5,0.27-0.9,0.65-1.17,1.12c-0.28,0.47-0.42,0.97-0.42,1.49c0,0.54,0.14,1.04,0.43,1.53c0.29,0.48,0.68,0.86,1.19,1.14
				c0.51,0.28,1.06,0.41,1.66,0.41c0.73,0,1.35-0.21,1.86-0.62s0.81-0.95,0.9-1.61h-2.27v-0.69h3.07c-0.01,1.1-0.33,1.97-0.98,2.62
				s-1.51,0.97-2.6,0.97c-1.32,0-2.36-0.45-3.13-1.35c-0.59-0.69-0.89-1.49-0.89-2.4c0-0.67,0.17-1.3,0.51-1.88
				c0.34-0.58,0.8-1.03,1.39-1.36s1.26-0.49,2-0.49c0.6,0,1.17,0.11,1.7,0.33C196.23,75,196.75,75.35,197.26,75.83z"/>
			<path class="st1" d="M199.85,74.63h0.71v4.3c0,0.51,0.01,0.83,0.03,0.95c0.04,0.28,0.12,0.52,0.25,0.7
				c0.13,0.19,0.33,0.35,0.6,0.47c0.27,0.13,0.54,0.19,0.81,0.19c0.24,0,0.46-0.05,0.68-0.15c0.22-0.1,0.4-0.24,0.54-0.42
				s0.25-0.39,0.32-0.64c0.05-0.18,0.07-0.55,0.07-1.11v-4.3h0.71v4.3c0,0.64-0.06,1.15-0.19,1.54c-0.12,0.39-0.37,0.73-0.75,1.02
				c-0.37,0.29-0.82,0.44-1.35,0.44c-0.57,0-1.07-0.14-1.48-0.41c-0.41-0.27-0.68-0.64-0.82-1.09c-0.09-0.28-0.13-0.78-0.13-1.5
				V74.63z"/>
			<path class="st1" d="M207.15,74.63h1.42c0.79,0,1.33,0.03,1.61,0.1c0.42,0.1,0.77,0.3,1.03,0.62s0.4,0.71,0.4,1.18
				c0,0.39-0.09,0.73-0.27,1.02c-0.18,0.29-0.44,0.52-0.78,0.67s-0.81,0.23-1.4,0.23l2.56,3.31h-0.88l-2.56-3.31h-0.4v3.31h-0.71
				v-7.13H207.15z M207.86,75.33v2.42l1.23,0.01c0.47,0,0.83-0.04,1.05-0.14c0.23-0.09,0.41-0.23,0.53-0.43
				c0.13-0.2,0.19-0.42,0.19-0.67c0-0.24-0.06-0.46-0.19-0.65c-0.13-0.2-0.3-0.33-0.51-0.42c-0.21-0.08-0.56-0.13-1.05-0.13
				L207.86,75.33L207.86,75.33z"/>
			<path class="st1" d="M217.31,74.45c1.08,0,1.98,0.36,2.71,1.08c0.73,0.72,1.09,1.61,1.09,2.66c0,1.04-0.36,1.93-1.09,2.65
				c-0.72,0.73-1.61,1.09-2.65,1.09c-1.06,0-1.95-0.36-2.67-1.08c-0.73-0.72-1.09-1.6-1.09-2.62c0-0.68,0.17-1.32,0.5-1.9
				s0.78-1.04,1.35-1.37C216.03,74.62,216.65,74.45,217.31,74.45z M217.34,75.14c-0.53,0-1.03,0.14-1.5,0.41
				c-0.47,0.27-0.84,0.64-1.11,1.11s-0.4,0.98-0.4,1.56c0,0.85,0.29,1.56,0.88,2.14c0.59,0.58,1.29,0.87,2.12,0.87
				c0.55,0,1.06-0.13,1.53-0.4c0.47-0.27,0.84-0.63,1.1-1.1c0.26-0.46,0.4-0.98,0.4-1.55s-0.13-1.08-0.4-1.53
				c-0.26-0.46-0.63-0.82-1.11-1.1C218.39,75.28,217.88,75.14,217.34,75.14z"/>
			<path class="st1" d="M222.59,80.42l0.61-0.36c0.43,0.78,0.92,1.18,1.48,1.18c0.24,0,0.46-0.06,0.67-0.17
				c0.21-0.11,0.37-0.26,0.48-0.45c0.11-0.19,0.16-0.39,0.16-0.6c0-0.24-0.08-0.47-0.24-0.7c-0.22-0.32-0.63-0.7-1.22-1.14
				c-0.59-0.45-0.96-0.77-1.11-0.97c-0.25-0.34-0.38-0.7-0.38-1.09c0-0.31,0.07-0.59,0.22-0.85c0.15-0.25,0.36-0.46,0.63-0.6
				c0.27-0.15,0.56-0.22,0.88-0.22c0.34,0,0.65,0.08,0.94,0.25c0.29,0.17,0.6,0.47,0.93,0.92l-0.58,0.44
				c-0.27-0.36-0.5-0.59-0.68-0.7c-0.19-0.11-0.4-0.17-0.62-0.17c-0.29,0-0.52,0.09-0.7,0.26c-0.18,0.17-0.27,0.39-0.27,0.64
				c0,0.15,0.03,0.31,0.1,0.45c0.06,0.15,0.18,0.3,0.35,0.47c0.09,0.09,0.4,0.33,0.92,0.71c0.62,0.46,1.04,0.86,1.27,1.22
				c0.23,0.36,0.34,0.71,0.34,1.07c0,0.52-0.2,0.97-0.59,1.35s-0.87,0.57-1.43,0.57c-0.43,0-0.82-0.12-1.18-0.35
				C223.21,81.35,222.89,80.97,222.59,80.42z"/>
		</g>
		<g>
			<path class="st1" d="M112.51,81.93l1.04-7.24h0.12l2.94,5.94l2.91-5.94h0.12l1.04,7.24h-0.71l-0.72-5.17l-2.56,5.17h-0.18
				l-2.59-5.21l-0.71,5.21H112.51z"/>
		</g>
	</g>
	<path class="st0" d="M159.2,33.68c-0.77,1.03-1.42,1.88-2.06,2.73c-0.48,0.64-1.05,1.24-1.42,1.93c-0.69,1.28-1.73,1.45-3.09,1.15
		c0.54-1.22,1.21-2.38,1.58-3.63c0.54-1.8,1.1-2.22,3.42-2.19C158.06,33.67,158.51,33.68,159.2,33.68z"/>
	<path class="st0" d="M113.87,62.61c0.31-0.1,0.56-0.19,0.81-0.25c6.38-1.61,10.85-7.45,10.87-13.83c0.02-4.24-1.32-7.87-4.44-10.78
		c-3.98-3.71-8.8-4.67-13.97-3.82c-8.08,1.34-13.15,8.18-12.11,16.22c0.79,6.05,4.26,10.01,9.99,11.94c1.35,0.46,2.6,0.99,3.78,1.78
		c3.37,2.27,7,3.9,11.07,4.39c0.38,0.05,0.94,0.07,1.16-0.15c1.15-1.14,2.23-2.36,3.15-3.36C121.53,65.28,116.48,64.3,113.87,62.61z
		 M98.99,48.42c0.02-6.33,4.8-11.01,11.24-11c6.48,0.01,11.25,4.62,11.25,10.88c0,6.2-4.93,11-11.3,10.99
		C103.81,59.28,98.98,54.58,98.99,48.42z"/>
	<path class="st0" d="M140.1,43.89c1.25,0,2.35,0,3.51,0c0.02,0.31,0.05,0.58,0.05,0.85c0,5.62-0.01,11.24,0.02,16.86
		c0,0.79-0.26,1.02-0.99,0.95c-0.6-0.05-1.22-0.05-1.83,0c-0.65,0.05-0.84-0.21-0.78-0.82c0.04-0.43,0.01-0.87,0.01-1.55
		c-0.43,0.36-0.69,0.58-0.95,0.8c-1.75,1.45-3.73,2.2-6,1.8c-2.95-0.52-4.88-2.62-4.98-5.69c-0.15-4.2-0.07-8.42-0.1-12.62
		c0-0.53,0.23-0.66,0.71-0.64c0.66,0.03,1.33,0.04,1.99,0c0.62-0.04,0.82,0.19,0.81,0.8c-0.02,2.77-0.02,5.54,0,8.31
		c0.01,1.08,0.04,2.16,0.12,3.23c0.23,3.39,2.52,4.23,5.27,3.51c1.23-0.32,2.15-1.12,2.89-2.12c0.19-0.26,0.24-0.67,0.24-1.01
		c0.02-3.88,0.01-7.75,0.01-11.63C140.1,44.6,140.1,44.28,140.1,43.89z"/>
	<path class="st0" d="M147.65,49.82c0-1.04,0.06-1.93-0.02-2.81c-0.07-0.82,0.27-1.34,0.86-1.84c2.39-2.01,7.01-2.3,9.61-0.56
		c1.57,1.05,2.37,2.54,2.39,4.41c0.04,3.21,0.02,6.43,0.03,9.64c0,1.77,0.49,2.05,2.02,1.21c0.21-0.12,0.43-0.22,0.78-0.4
		c0,0.64,0.01,1.19-0.01,1.73c-0.01,0.15-0.09,0.34-0.2,0.42c-1.33,0.93-2.78,1.63-4.42,1.12c-0.74-0.23-1.33-0.92-1.93-1.36
		c-1.2,0.43-2.51,1.03-3.88,1.36c-2.09,0.51-4.11-0.44-5.04-2.17c-0.99-1.83-0.68-4.07,0.95-5.53c0.87-0.77,1.93-1.39,3-1.86
		c1.49-0.65,3.06-1.12,4.61-1.62c0.54-0.17,0.69-0.48,0.63-0.99c-0.05-0.47-0.05-0.94-0.15-1.4c-0.34-1.59-1.64-2.41-3.52-2.33
		c-1.56,0.06-2.9,0.66-4.1,1.59C148.75,48.83,148.27,49.29,147.65,49.82z M157.06,53.41c-0.09-0.06-0.18-0.12-0.27-0.19
		c-1.43,0.64-2.86,1.26-4.27,1.94c-0.38,0.19-0.73,0.51-1.01,0.84c-1.06,1.25-0.74,3.23,0.66,4.03c1.23,0.7,2.43,0.38,3.63-0.18
		c1.11-0.52,1.38-1.36,1.28-2.49c-0.08-0.85-0.02-1.71-0.02-2.57C157.06,54.33,157.06,53.87,157.06,53.41z"/>
	<path class="st0" d="M169.36,34.04c0,9.54,0,18.96,0,28.49c-1.06,0-2.08,0.02-3.09-0.02c-0.16-0.01-0.36-0.27-0.43-0.46
		c-0.08-0.19-0.03-0.44-0.03-0.66c0-8.75,0-17.49,0-26.24c0-1.12,0-1.12,1.14-1.12C167.72,34.04,168.49,34.04,169.36,34.04z"/>
	<path class="st0" d="M178.66,62.53c-1.05,0-2.04,0.03-3.03-0.03c-0.18-0.01-0.46-0.35-0.49-0.56c-0.07-0.63-0.03-1.27-0.03-1.91
		c0-5.06,0.02-10.13-0.02-15.19c-0.01-0.79,0.21-1.09,1.02-1.02c0.82,0.07,1.65,0.01,2.54,0.01
		C178.66,50.08,178.66,56.23,178.66,62.53z"/>
	<path class="st0" d="M174.8,38.04c0-1.19,0.9-2.07,2.1-2.07c1.23,0,2.18,0.93,2.16,2.12c-0.02,1.13-1.1,2.18-2.21,2.14
		C175.73,40.19,174.8,39.19,174.8,38.04z"/>
	<path class="st0" d="M194.9,58.58c0,0.96,0.02,1.9-0.02,2.84c-0.01,0.17-0.19,0.42-0.35,0.5c-2.3,1.07-4.66,1.41-7.06,0.39
		c-2.02-0.87-2.95-2.53-2.98-4.68c-0.04-3.19-0.05-6.37-0.01-9.56c0.01-0.82-0.25-1.08-1.04-1.01c-0.73,0.06-1.47,0.01-2.19,0.01
		c2.25-2.33,4.44-4.61,6.79-7.04c0,1.06,0.05,1.94-0.01,2.8c-0.06,0.78,0.17,1.08,1,1.04c1.35-0.07,2.71-0.02,4.07-0.02
		c0.27,0,0.54,0.02,0.86,0.04c0,1.06,0,2.07,0,3.18c-1.64,0-3.24,0-4.84,0c-1.08,0-1.08,0-1.08,1.09c0,2.74,0,5.49,0,8.23
		c0,2.62,1.42,3.76,3.98,3.14C192.95,59.3,193.85,58.93,194.9,58.58z"/>
	<path class="st0" d="M198.3,49.82c0-1.04,0.06-1.93-0.02-2.81c-0.07-0.82,0.27-1.34,0.86-1.84c2.39-2.01,7.01-2.3,9.61-0.56
		c1.57,1.05,2.37,2.54,2.39,4.41c0.04,3.21,0.02,6.43,0.03,9.64c0,1.77,0.49,2.05,2.02,1.21c0.21-0.12,0.43-0.22,0.78-0.4
		c0,0.64,0.01,1.19-0.01,1.73c-0.01,0.15-0.09,0.34-0.2,0.42c-1.33,0.93-2.78,1.63-4.42,1.12c-0.74-0.23-1.33-0.92-1.93-1.36
		c-1.2,0.43-2.51,1.03-3.88,1.36c-2.09,0.51-4.11-0.44-5.04-2.17c-0.99-1.83-0.68-4.07,0.95-5.53c0.87-0.77,1.93-1.39,3-1.86
		c1.49-0.65,3.06-1.12,4.61-1.62c0.54-0.17,0.69-0.48,0.63-0.99c-0.05-0.47-0.05-0.94-0.15-1.4c-0.34-1.59-1.64-2.41-3.52-2.33
		c-1.56,0.06-2.9,0.66-4.1,1.59C199.4,48.83,198.91,49.29,198.3,49.82z M207.7,53.41c-0.09-0.06-0.18-0.12-0.27-0.19
		c-1.43,0.64-2.86,1.26-4.27,1.94c-0.38,0.19-0.73,0.51-1.01,0.84c-1.06,1.25-0.74,3.23,0.66,4.03c1.23,0.7,2.43,0.38,3.63-0.18
		c1.11-0.52,1.38-1.36,1.28-2.49c-0.08-0.85-0.02-1.71-0.02-2.57C207.7,54.33,207.7,53.87,207.7,53.41z"/>
	<path class="st0" d="M227.79,48.27c-1.57-0.56-3.02-1.2-4.53-1.57c-0.71-0.18-1.61-0.01-2.32,0.27c-1.08,0.42-1.29,1.62-0.48,2.45
		c0.53,0.55,1.2,0.97,1.84,1.4c1.43,0.95,2.93,1.78,4.3,2.81c1.27,0.96,2.1,2.29,2.16,3.95c0.08,2.4-1.67,4.51-4.29,5.08
		c-2.82,0.62-5.49,0.05-8.01-1.28c-0.17-0.09-0.35-0.37-0.36-0.57c-0.03-1.1-0.02-2.2-0.02-3.31c1.19,0.6,2.3,1.21,3.45,1.71
		c1.17,0.51,2.41,0.85,3.7,0.42c0.82-0.27,1.54-0.69,1.7-1.63c0.15-0.9-0.31-1.55-1.04-2.01c-1.21-0.77-2.46-1.48-3.67-2.26
		c-0.76-0.5-1.52-1.02-2.2-1.63c-1.52-1.37-2.18-3.08-1.59-5.08c0.56-1.92,2.05-2.91,3.91-3.32c2.45-0.54,4.78-0.03,6.98,1.09
		c0.2,0.1,0.42,0.39,0.43,0.6C227.81,46.37,227.79,47.36,227.79,48.27z"/>
	<path class="st0" d="M70.07,30.95c-5.62-2.06-11.31-2.05-17-0.28c-7.43,2.31-12.27,8.63-11.24,16.96
		c0.66,5.39,3.38,9.41,8.22,11.79c6.85,3.37,13.94,3.56,20.95,0.6c6.09-2.57,9.28-7.29,9.43-16.54
		C80.51,39.01,76.48,33.29,70.07,30.95z M70.94,51.17c-1.15,4.66-5.39,7.9-10.18,7.79c-4.7-0.11-8.81-3.57-9.7-8.26
		c-0.31-1.65-0.79-3.31-0.74-5.37c0.04-1.87,0.5-4.08,1.18-6.15c1.45-4.44,5.77-7.09,10.49-6.74c4.42,0.33,8.23,3.87,9.11,8.38
		C71.78,44.29,71.79,47.73,70.94,51.17z"/>
	<path class="st1" d="M101.6,75.95l-0.56,0.43c-0.31-0.4-0.68-0.71-1.12-0.92c-0.43-0.21-0.91-0.31-1.43-0.31
		c-0.57,0-1.09,0.14-1.58,0.41c-0.48,0.27-0.86,0.64-1.13,1.1s-0.4,0.98-0.4,1.55c0,0.87,0.3,1.59,0.89,2.17
		c0.6,0.58,1.35,0.87,2.25,0.87c1,0,1.83-0.39,2.5-1.17l0.56,0.43c-0.35,0.45-0.8,0.8-1.33,1.05s-1.12,0.37-1.78,0.37
		c-1.25,0-2.23-0.41-2.95-1.24c-0.6-0.7-0.91-1.55-0.91-2.54c0-1.04,0.37-1.92,1.1-2.63c0.73-0.71,1.65-1.07,2.75-1.07
		c0.66,0,1.26,0.13,1.8,0.39C100.82,75.11,101.26,75.48,101.6,75.95z"/>
	<path class="st1" d="M107.21,74.45c1.08,0,1.98,0.36,2.71,1.08c0.73,0.72,1.09,1.61,1.09,2.66c0,1.04-0.36,1.93-1.09,2.65
		c-0.72,0.73-1.61,1.09-2.65,1.09c-1.06,0-1.95-0.36-2.67-1.08c-0.73-0.72-1.09-1.6-1.09-2.62c0-0.68,0.17-1.32,0.5-1.9
		s0.78-1.04,1.35-1.37C105.93,74.62,106.55,74.45,107.21,74.45z M107.25,75.14c-0.53,0-1.03,0.14-1.5,0.41
		c-0.47,0.27-0.84,0.64-1.11,1.11c-0.27,0.47-0.4,0.98-0.4,1.56c0,0.85,0.29,1.56,0.88,2.14s1.29,0.87,2.12,0.87
		c0.55,0,1.06-0.13,1.53-0.4c0.47-0.27,0.84-0.63,1.1-1.1c0.26-0.46,0.39-0.98,0.39-1.55s-0.13-1.08-0.39-1.53
		c-0.26-0.46-0.63-0.82-1.11-1.1C108.29,75.28,107.78,75.14,107.25,75.14z"/>
</g>
</svg>
