<?xml version="1.0" encoding="utf-8"?>
<!-- Generator: Adobe Illustrator 25.0.1, SVG Export Plug-In . SVG Version: 6.00 Build 0)  -->
<svg version="1.1" id="Layer_1" xmlns="http://www.w3.org/2000/svg" xmlns:xlink="http://www.w3.org/1999/xlink" x="0px" y="0px"
	 viewBox="0 0 265.81 110.44" style="enable-background:new 0 0 265.81 110.44;" xml:space="preserve">
<style type="text/css">
	.st0{fill-rule:evenodd;clip-rule:evenodd;fill:#B3B3B3;}
</style>
<g>
	<path class="st0" d="M56.79,43.52c-3.21,0-6.01,1.14-8.29,3.42c-2.28,2.28-3.42,5.07-3.42,8.28c0,3.31,1.14,6.01,3.42,8.29
		c2.28,2.38,5.07,3.52,8.29,3.52c3.21,0,6.01-1.14,8.28-3.52c2.28-2.28,3.42-4.97,3.42-8.29c0-3.21-1.14-6.01-3.42-8.28
		C62.79,44.66,60,43.52,56.79,43.52L56.79,43.52z"/>
	<path class="st0" d="M56.79,41.45V28.09c-4.76,0-9.22,1.24-13.36,3.52v20.3c0.73-3,2.38-5.49,4.76-7.35
		C50.78,42.48,53.57,41.45,56.79,41.45L56.79,41.45z"/>
	<path class="st0" d="M53.88,68.89c-3.11-0.72-5.59-2.38-7.46-4.87c-2.07-2.49-3-5.28-3-8.49H29.65c0,4.76,1.24,9.22,3.62,13.36
		H53.88L53.88,68.89z"/>
	<path class="st0" d="M70.25,58.74c-0.72,3-2.28,5.49-4.76,7.46c-2.49,1.97-5.39,3-8.6,3v13.15c4.76,0,9.22-1.14,13.36-3.52V58.74
		L70.25,58.74z"/>
	<path class="st0" d="M83.92,55.12c0-4.76-1.24-9.22-3.62-13.36H60.2c3.11,0.73,5.59,2.38,7.46,4.76c2.07,2.59,3,5.39,3,8.6
		L83.92,55.12L83.92,55.12z"/>
	<polygon class="st0" points="90.13,42.48 90.13,58.22 94.9,58.22 94.9,42.48 	"/>
	<polygon class="st0" points="119.85,42.48 114.99,42.48 114.99,53.88 114.99,53.88 105.77,42.48 98.31,42.48 98.31,58.22 
		103.18,58.22 103.18,46.73 103.18,46.73 112.29,58.22 119.85,58.22 	"/>
	<path class="st0" d="M127.83,48.7v-2.49h8.59c0.93,0,1.45,0.41,1.45,1.24s-0.52,1.24-1.45,1.24L127.83,48.7L127.83,48.7z
		 M127.83,51.91h8.7c1.14,0,1.76,0.52,1.76,1.35c0,0.83-0.62,1.14-1.76,1.14h-8.7V51.91L127.83,51.91z M140.36,50.25v-0.1
		c0.83-0.21,1.34-0.52,1.66-0.93c0.52-0.52,0.72-1.45,0.72-2.69c0-1.45-0.52-2.48-1.45-3.21c-0.93-0.62-2.38-0.83-4.35-0.83h-13.98
		v15.74h15.53c1.55,0,2.69-0.21,3.42-0.73c0.83-0.73,1.35-1.86,1.35-3.42c0-1.24-0.21-2.17-0.62-2.69
		C142.12,50.77,141.39,50.35,140.36,50.25L140.36,50.25z"/>
	<path class="st0" d="M165.94,42.48h-4.76v9.11c0,0.93-0.31,1.66-0.62,2.07c-0.42,0.52-1.24,0.73-2.18,0.73h-4.76
		c-1.04,0-1.66-0.21-2.17-0.73c-0.42-0.42-0.52-1.14-0.52-2.07v-9.11h-4.87v10.15c0,1.97,0.52,3.42,1.55,4.35
		c1.04,1.04,2.69,1.45,4.87,1.45h7.04c2.18,0,3.83-0.42,4.87-1.45c1.04-0.93,1.55-2.38,1.55-4.35L165.94,42.48L165.94,42.48z"/>
	<path class="st0" d="M173.91,50.15v-3.83c2.55,0,5.11,0,7.66,0c1.3,0,2.18,0.22,2.18,1.66c0,0.17,0,0.35,0,0.52
		c0,1.14-0.62,1.66-1.76,1.66L173.91,50.15L173.91,50.15z M173.91,54.19h7.66c0.73,0,1.24,0.1,1.55,0.41s0.42,0.93,0.42,1.76v1.86
		h4.87v-2.69c0-1.14-0.21-2.07-0.72-2.59c-0.41-0.41-1.04-0.72-1.86-0.93c1.04-0.21,1.76-0.72,2.17-1.35
		c0.31-0.62,0.52-1.45,0.52-2.59v-0.93c0-1.55-0.31-2.69-0.93-3.42c-0.83-0.93-2.07-1.24-3.83-1.24h-14.71v15.74h4.87L173.91,54.19
		L173.91,54.19z"/>
	<path class="st0" d="M201.98,48.39l-4.87-0.21c-0.31,0-0.62-0.21-0.72-0.41c-0.1-0.1-0.21-0.41-0.21-0.73
		c0-0.83,0.62-1.24,1.86-1.24h5.38c1.04,0,1.76,0.1,2.07,0.31c0.21,0.21,0.31,0.62,0.31,1.35h4.87v-0.52c0-1.66-0.31-2.8-1.03-3.42
		c-0.83-0.93-2.59-1.35-5.08-1.35h-6.83c-2.8,0-4.66,0.52-5.49,1.45c-0.62,0.72-0.93,1.97-0.93,3.62c0,1.14,0.1,1.86,0.31,2.48
		c0.1,0.62,0.52,1.04,1.03,1.45c1.04,0.62,3.21,0.93,6.84,0.93l5.8,0.21c0.41,0,0.72,0.21,0.83,0.41l0.21,0.83
		c0,0.52-0.21,0.93-0.62,1.14l-1.45,0.21h-6.01l-1.55-0.31c-0.31-0.21-0.52-0.72-0.52-1.55h-4.87v1.14c0,1.66,0.52,2.8,1.45,3.42
		c0.83,0.52,2.48,0.83,4.76,0.83h5.9c3.21,0,5.39-0.31,6.32-0.93c0.62-0.31,1.04-0.83,1.24-1.45c0.21-0.62,0.31-1.56,0.31-2.59
		c0-1.24-0.1-2.07-0.42-2.69c-0.21-0.73-0.72-1.24-1.35-1.55C208.4,48.59,205.91,48.39,201.98,48.39L201.98,48.39z"/>
	<polygon class="st0" points="227.46,42.48 221.14,42.48 212.54,58.22 218.03,58.22 219.38,55.43 221.24,52.01 224.35,46.11 
		227.46,52.01 221.24,52.01 219.38,55.43 229.32,55.43 230.77,58.22 236.16,58.22 	"/>
</g>
</svg>
