<?xml version="1.0" encoding="utf-8"?>
<!-- Generator: Adobe Illustrator 25.0.1, SVG Export Plug-In . SVG Version: 6.00 Build 0)  -->
<svg version="1.1" id="Layer_1" xmlns="http://www.w3.org/2000/svg" xmlns:xlink="http://www.w3.org/1999/xlink" x="0px" y="0px"
	 viewBox="0 0 265.81 110.44" style="enable-background:new 0 0 265.81 110.44;" xml:space="preserve">
<style type="text/css">
	.st0{fill-rule:evenodd;clip-rule:evenodd;fill:#B3B3B3;}
	.st1{fill:#B3B3B3;}
	.st2{fill:none;stroke:#B3B3B3;stroke-width:2;stroke-miterlimit:10;}
</style>
<g>
	<g>
		<g>
			<g>
				<path class="st0" d="M38.94,57.69h10.17c0,0,0.74,0.02,0.74,0.77c0,0.76,0,1.62,0,1.62s-0.05,0.73-0.74,0.73
					c-0.69,0-10.17,0-10.17,0L38.94,57.69z M38.94,54.54c0,0,9.48,0,10.17,0c0.7,0,0.74-0.72,0.74-0.72s0-0.86,0-1.62
					s-0.74-0.77-0.74-0.77H38.94V54.54z M53.38,59.24c0,2.58-2.09,4.67-4.67,4.67h-12.9v-0.03V48.36h12.25h0.65
					c2.58,0,4.67,2.09,4.67,4.67c0,0,0.11,1.59-1.14,3.15C52.24,56.18,53.38,57.34,53.38,59.24z"/>
				<g>
					<path class="st1" d="M61.39,48.36h4.15l7.89,15.55H69.8l-2.34-4.6h-7.98l-2.33,4.6h-3.63L61.39,48.36z M65.86,56.15l-2.4-4.69
						l-2.39,4.69H65.86z"/>
					<g>
						<path class="st0" d="M102.22,63.91c-4.29,0-7.78-3.48-7.78-7.78c0-4.29,3.48-7.77,7.78-7.77h4.98c4.29,0,7.77,3.48,7.77,7.77
							s-3.48,7.78-7.77,7.78H102.22z M107.02,60.45c2.39,0,4.32-1.93,4.32-4.32s-1.94-4.32-4.32-4.32h-4.63
							c-2.38,0-4.32,1.93-4.32,4.32c0,2.38,1.94,4.32,4.32,4.32H107.02z"/>
						<g>
							<path class="st0" d="M130.89,53.86c0,0.41-0.34,0.75-0.75,0.75h-10.18v-3.12h10.19c0.41,0,0.74,0.34,0.74,0.75V53.86z
								 M119.98,63.91v-6.19h6.34l4.05,6.18h4.02l-4.06-6.21c4.18-0.62,4.16-4.63,4.16-4.63c0-2.58-2.09-4.67-4.67-4.67h-0.13
								h-12.82V63.9L119.98,63.91L119.98,63.91z"/>
						</g>
						<polygon class="st1" points="75.05,63.91 78.17,63.91 78.17,53.82 89.95,63.91 93.08,63.91 93.08,48.36 89.95,48.36 
							89.95,58.46 78.17,48.36 75.05,48.36 						"/>
						<polygon class="st1" points="136.43,51.55 142.52,51.55 142.52,63.91 146.16,63.91 146.16,51.55 152.16,51.55 152.16,48.42 
							136.43,48.42 						"/>
						<polygon class="st1" points="154.23,48.37 169.96,48.37 169.96,51.49 157.35,51.49 157.35,54.58 167.55,54.58 167.55,57.7 
							157.35,57.7 157.35,60.78 169.96,60.78 169.96,63.91 154.23,63.91 						"/>
					</g>
				</g>
			</g>
			<g>
				<path class="st1" d="M17.76,54.98l2.41-6.61v6.61c0.35,0.01,0.71,0.02,1.07,0.02c6.61,0,11.98-1.77,11.98-4.16
					c0-2.38-5.36-4.31-11.98-4.31c-6.61,0-11.98,1.93-11.98,4.31C9.26,52.79,12.85,54.44,17.76,54.98L17.76,54.98z"/>
				<path class="st1" d="M17.58,55.47c-6.36,0.1-11.45,1.99-11.45,4.31c0,1.93,3.53,3.56,8.39,4.12L17.58,55.47L17.58,55.47z"/>
				<path class="st1" d="M20.18,55.47v8.44c5.62-0.35,9.9-1.99,9.9-4.12C30.08,57.66,25.8,55.82,20.18,55.47L20.18,55.47z"/>
			</g>
		</g>
	</g>
	<line class="st2" x1="177.07" y1="44.5" x2="177.07" y2="65.95"/>
	<g>
		<path class="st1" d="M182.54,58.19l1.41-0.12c0.07,0.57,0.22,1.03,0.47,1.4c0.24,0.36,0.62,0.66,1.13,0.88
			c0.51,0.23,1.09,0.34,1.73,0.34c0.57,0,1.07-0.09,1.51-0.25c0.43-0.17,0.76-0.4,0.97-0.7s0.32-0.62,0.32-0.97
			c0-0.36-0.1-0.67-0.31-0.93c-0.21-0.26-0.54-0.49-1.01-0.67c-0.3-0.12-0.97-0.3-2.01-0.55c-1.03-0.25-1.76-0.49-2.17-0.71
			c-0.54-0.28-0.94-0.64-1.2-1.06c-0.26-0.42-0.39-0.89-0.39-1.41c0-0.57,0.16-1.11,0.48-1.61c0.32-0.5,0.79-0.88,1.41-1.13
			c0.62-0.26,1.31-0.39,2.07-0.39c0.83,0,1.57,0.14,2.21,0.4c0.64,0.27,1.13,0.67,1.47,1.2c0.34,0.53,0.53,1.12,0.55,1.79
			l-1.43,0.11c-0.08-0.72-0.34-1.26-0.78-1.63c-0.44-0.36-1.1-0.55-1.96-0.55c-0.9,0-1.56,0.17-1.97,0.5
			c-0.41,0.34-0.62,0.74-0.62,1.21c0,0.41,0.15,0.74,0.44,1.01c0.28,0.26,1.03,0.53,2.25,0.81c1.21,0.28,2.04,0.52,2.49,0.73
			c0.66,0.3,1.14,0.69,1.45,1.16s0.47,1.01,0.47,1.61c0,0.61-0.17,1.17-0.51,1.71c-0.34,0.53-0.84,0.95-1.48,1.25
			c-0.64,0.29-1.36,0.45-2.17,0.45c-1.02,0-1.87-0.15-2.56-0.45s-1.23-0.75-1.62-1.35C182.77,59.63,182.57,58.95,182.54,58.19z"/>
		<path class="st1" d="M193.57,61.83V50.48h8.14v1.34h-6.65v3.48h6.23v1.33h-6.23v3.87h6.91v1.34L193.57,61.83L193.57,61.83z"/>
		<path class="st1" d="M209.3,57.38v-1.33l4.77-0.01v4.21c-0.73,0.59-1.49,1.03-2.27,1.33c-0.78,0.29-1.58,0.45-2.39,0.45
			c-1.11,0-2.11-0.24-3.02-0.72c-0.9-0.48-1.59-1.17-2.05-2.07s-0.69-1.91-0.69-3.03c0-1.11,0.23-2.14,0.69-3.09
			c0.46-0.96,1.12-1.67,1.98-2.13c0.86-0.47,1.85-0.69,2.97-0.69c0.81,0,1.55,0.13,2.21,0.4s1.17,0.64,1.55,1.11
			c0.37,0.47,0.66,1.09,0.85,1.86l-1.34,0.37c-0.17-0.58-0.38-1.03-0.63-1.36s-0.61-0.59-1.08-0.79s-0.98-0.3-1.55-0.3
			c-0.68,0-1.27,0.1-1.77,0.31c-0.5,0.21-0.9,0.49-1.2,0.83c-0.31,0.34-0.54,0.72-0.71,1.12c-0.29,0.7-0.43,1.46-0.43,2.29
			c0,1.01,0.17,1.86,0.52,2.54c0.34,0.68,0.85,1.19,1.51,1.52c0.66,0.33,1.36,0.5,2.11,0.5c0.65,0,1.28-0.13,1.89-0.38
			s1.08-0.52,1.4-0.8v-2.11h-3.32L209.3,57.38L209.3,57.38z"/>
		<path class="st1" d="M223.66,50.48h1.49v6.56c0,1.14-0.13,2.05-0.38,2.72c-0.26,0.67-0.72,1.22-1.39,1.64s-1.55,0.63-2.63,0.63
			c-1.05,0-1.92-0.19-2.59-0.55c-0.67-0.37-1.15-0.9-1.44-1.59c-0.29-0.69-0.43-1.64-0.43-2.85v-6.56h1.49v6.55
			c0,0.99,0.09,1.71,0.27,2.18c0.18,0.47,0.49,0.83,0.94,1.08c0.44,0.25,0.98,0.38,1.62,0.38c1.1,0,1.88-0.25,2.34-0.75
			c0.47-0.5,0.7-1.46,0.7-2.89L223.66,50.48L223.66,50.48z"/>
		<path class="st1" d="M227.65,61.83V50.48h4.99c1,0,1.77,0.1,2.29,0.31c0.52,0.2,0.94,0.57,1.25,1.08
			c0.31,0.51,0.47,1.09,0.47,1.71c0,0.81-0.26,1.48-0.77,2.04c-0.52,0.55-1.32,0.9-2.4,1.05c0.39,0.19,0.69,0.38,0.9,0.56
			c0.43,0.4,0.85,0.91,1.24,1.51l1.96,3.09h-1.87l-1.49-2.36c-0.44-0.68-0.79-1.2-1.08-1.56c-0.28-0.36-0.53-0.61-0.76-0.76
			c-0.22-0.15-0.45-0.24-0.68-0.3c-0.17-0.04-0.45-0.06-0.83-0.06h-1.73v5.04H227.65z M229.14,55.49h3.2c0.68,0,1.21-0.07,1.6-0.21
			c0.38-0.14,0.68-0.37,0.87-0.68c0.2-0.31,0.3-0.65,0.3-1.02c0-0.54-0.19-0.98-0.58-1.32c-0.39-0.35-1-0.52-1.83-0.52h-3.56V55.49z
			"/>
		<path class="st1" d="M238.54,56.3c0-1.89,0.5-3.36,1.51-4.43c1-1.07,2.3-1.6,3.89-1.6c1.04,0,1.98,0.25,2.81,0.75
			c0.84,0.5,1.47,1.2,1.91,2.09c0.44,0.9,0.66,1.91,0.66,3.05c0,1.15-0.23,2.18-0.69,3.09s-1.11,1.6-1.96,2.06
			c-0.85,0.47-1.76,0.7-2.74,0.7c-1.06,0-2.01-0.26-2.84-0.78c-0.83-0.51-1.46-1.22-1.9-2.11C238.75,58.25,238.54,57.3,238.54,56.3z
			 M240.07,56.33c0,1.37,0.36,2.45,1.09,3.23c0.73,0.79,1.65,1.18,2.75,1.18c1.12,0,2.04-0.4,2.77-1.19
			c0.72-0.79,1.09-1.92,1.09-3.38c0-0.92-0.15-1.73-0.46-2.42c-0.31-0.69-0.76-1.22-1.36-1.6c-0.6-0.38-1.27-0.57-2.01-0.57
			c-1.06,0-1.96,0.37-2.72,1.1C240.45,53.4,240.07,54.62,240.07,56.33z"/>
		<path class="st1" d="M250.72,58.19l1.41-0.12c0.07,0.57,0.22,1.03,0.46,1.4c0.24,0.36,0.62,0.66,1.13,0.88
			c0.51,0.23,1.09,0.34,1.73,0.34c0.57,0,1.07-0.09,1.51-0.25c0.43-0.17,0.76-0.4,0.97-0.7s0.32-0.62,0.32-0.97
			c0-0.36-0.1-0.67-0.31-0.93c-0.2-0.26-0.54-0.49-1.01-0.67c-0.3-0.12-0.97-0.3-2-0.55c-1.04-0.25-1.76-0.49-2.17-0.71
			c-0.54-0.28-0.94-0.64-1.2-1.06c-0.26-0.42-0.4-0.89-0.4-1.41c0-0.57,0.16-1.11,0.48-1.61c0.32-0.5,0.79-0.88,1.41-1.13
			c0.62-0.26,1.31-0.39,2.07-0.39c0.83,0,1.57,0.14,2.21,0.4c0.64,0.27,1.13,0.67,1.47,1.2c0.34,0.53,0.53,1.12,0.55,1.79
			l-1.43,0.11c-0.08-0.72-0.34-1.26-0.78-1.63c-0.44-0.36-1.1-0.55-1.96-0.55c-0.9,0-1.56,0.17-1.97,0.5
			c-0.41,0.34-0.62,0.74-0.62,1.21c0,0.41,0.15,0.74,0.44,1.01c0.29,0.26,1.04,0.53,2.24,0.81c1.21,0.28,2.04,0.52,2.49,0.73
			c0.66,0.3,1.14,0.69,1.45,1.16s0.47,1.01,0.47,1.61c0,0.61-0.17,1.17-0.51,1.71c-0.34,0.53-0.83,0.95-1.48,1.25
			c-0.64,0.29-1.37,0.45-2.17,0.45c-1.02,0-1.87-0.15-2.56-0.45s-1.23-0.75-1.62-1.35C250.94,59.63,250.74,58.95,250.72,58.19z"/>
	</g>
</g>
</svg>
