<?xml version="1.0" encoding="utf-8"?>
<!-- Generator: Adobe Illustrator 25.0.1, SVG Export Plug-In . SVG Version: 6.00 Build 0)  -->
<svg version="1.1" id="Layer_1" xmlns="http://www.w3.org/2000/svg" xmlns:xlink="http://www.w3.org/1999/xlink" x="0px" y="0px"
	 viewBox="0 0 542.26 230.87" style="enable-background:new 0 0 542.26 230.87;" xml:space="preserve">
<style type="text/css">
	.st0{fill:#003F70;}
</style>
<g>
	<g>
		<path class="st0" d="M204.44,181.65v25.94h-2.63v-20.75l-10.19,17.45h-1.3l-10.19-17.34v20.64h-2.63v-25.94h2.26l11.26,19.23
			l11.15-19.23H204.44z"/>
		<path class="st0" d="M215.48,204.92c-1.88-1.93-2.82-4.73-2.82-8.41v-14.86h2.74v14.75c0,3.01,0.68,5.26,2.04,6.74
			c1.36,1.48,3.32,2.22,5.89,2.22c2.59,0,4.57-0.74,5.93-2.22c1.36-1.48,2.04-3.73,2.04-6.74v-14.75h2.67v14.86
			c0,3.68-0.93,6.48-2.8,8.41c-1.87,1.93-4.48,2.89-7.84,2.89S217.35,206.84,215.48,204.92z"/>
		<path class="st0" d="M242.23,181.65h2.74v23.57h14.52v2.37h-17.27V181.65z"/>
		<path class="st0" d="M266.68,184.02h-9.11v-2.37h20.97v2.37h-9.11v23.57h-2.74V184.02z"/>
		<path class="st0" d="M282.91,181.65h2.74v25.94h-2.74V181.65z"/>
		<path class="st0" d="M298.42,206.1c-2.06-1.14-3.68-2.71-4.85-4.72c-1.17-2.01-1.76-4.27-1.76-6.76c0-2.49,0.59-4.75,1.76-6.76
			c1.17-2.01,2.8-3.59,4.87-4.72c2.08-1.14,4.4-1.7,6.97-1.7c1.93,0,3.71,0.32,5.34,0.96c1.63,0.64,3.01,1.58,4.15,2.82l-1.74,1.74
			c-2.03-2.05-4.58-3.08-7.67-3.08c-2.05,0-3.92,0.47-5.6,1.41c-1.68,0.94-3,2.22-3.95,3.85c-0.95,1.63-1.43,3.46-1.43,5.48
			c0,2.03,0.48,3.85,1.43,5.48c0.95,1.63,2.27,2.91,3.95,3.85c1.68,0.94,3.54,1.41,5.6,1.41c3.11,0,5.67-1.04,7.67-3.11l1.74,1.74
			c-1.14,1.24-2.53,2.18-4.17,2.83c-1.64,0.65-3.43,0.98-5.35,0.98C302.8,207.81,300.48,207.24,298.42,206.1z"/>
		<path class="st0" d="M324.54,206.09c-2.09-1.15-3.72-2.72-4.89-4.72c-1.17-2-1.76-4.25-1.76-6.74c0-2.49,0.59-4.74,1.76-6.74
			c1.17-2,2.8-3.58,4.89-4.72c2.09-1.15,4.42-1.72,6.98-1.72c2.57,0,4.88,0.57,6.95,1.7s3.69,2.71,4.87,4.72
			c1.19,2.01,1.78,4.27,1.78,6.76c0,2.5-0.59,4.75-1.78,6.76c-1.19,2.01-2.81,3.59-4.87,4.72c-2.06,1.14-4.38,1.7-6.95,1.7
			C328.96,207.81,326.63,207.23,324.54,206.09z M337.08,203.97c1.66-0.93,2.95-2.21,3.89-3.85c0.94-1.64,1.41-3.48,1.41-5.5
			c0-2.02-0.47-3.86-1.41-5.5c-0.94-1.64-2.24-2.93-3.89-3.85c-1.66-0.93-3.51-1.39-5.56-1.39c-2.05,0-3.91,0.46-5.58,1.39
			c-1.67,0.93-2.98,2.21-3.93,3.85c-0.95,1.64-1.43,3.48-1.43,5.5c0,2.03,0.48,3.86,1.43,5.5c0.95,1.64,2.26,2.93,3.93,3.85
			c1.67,0.93,3.53,1.39,5.58,1.39C333.58,205.36,335.43,204.9,337.08,203.97z"/>
		<path class="st0" d="M355.95,184.02h-9.12v-2.37h20.97v2.37h-9.12v23.57h-2.74V184.02z"/>
		<path class="st0" d="M372.17,181.65h2.74v25.94h-2.74V181.65z"/>
		<path class="st0" d="M402.07,205.21v2.37h-21.27v-1.89L398,184.02h-16.93v-2.37h20.56v1.89l-17.16,21.68H402.07z"/>
		<path class="st0" d="M423.75,200.66H409.3l-3.11,6.93h-2.85l11.86-25.94h2.7l11.86,25.94h-2.89L423.75,200.66z M422.75,198.43
			l-6.23-13.93l-6.22,13.93H422.75z"/>
		<path class="st0" d="M434.05,181.65h10.56c2.74,0,5.16,0.55,7.26,1.65c2.1,1.1,3.73,2.63,4.89,4.59c1.16,1.96,1.74,4.21,1.74,6.73
			s-0.58,4.76-1.74,6.73c-1.16,1.96-2.79,3.5-4.89,4.59c-2.1,1.1-4.52,1.65-7.26,1.65h-10.56V181.65z M444.46,205.21
			c2.27,0,4.26-0.45,5.97-1.35c1.7-0.9,3.03-2.15,3.96-3.74c0.94-1.59,1.41-3.43,1.41-5.5c0-2.07-0.47-3.91-1.41-5.5
			c-0.94-1.59-2.26-2.84-3.96-3.74c-1.7-0.9-3.69-1.35-5.97-1.35h-7.67v21.19H444.46z"/>
		<path class="st0" d="M469.01,206.09c-2.09-1.15-3.72-2.72-4.89-4.72c-1.17-2-1.76-4.25-1.76-6.74c0-2.49,0.59-4.74,1.76-6.74
			c1.17-2,2.8-3.58,4.89-4.72c2.09-1.15,4.42-1.72,6.98-1.72c2.57,0,4.88,0.57,6.95,1.7s3.69,2.71,4.87,4.72
			c1.19,2.01,1.78,4.27,1.78,6.76c0,2.5-0.59,4.75-1.78,6.76c-1.19,2.01-2.81,3.59-4.87,4.72c-2.06,1.14-4.38,1.7-6.95,1.7
			C473.43,207.81,471.1,207.23,469.01,206.09z M481.55,203.97c1.66-0.93,2.95-2.21,3.89-3.85c0.94-1.64,1.41-3.48,1.41-5.5
			c0-2.02-0.47-3.86-1.41-5.5c-0.94-1.64-2.24-2.93-3.89-3.85c-1.66-0.93-3.51-1.39-5.56-1.39c-2.05,0-3.91,0.46-5.58,1.39
			c-1.67,0.93-2.98,2.21-3.93,3.85c-0.95,1.64-1.43,3.48-1.43,5.5c0,2.03,0.48,3.86,1.43,5.5c0.95,1.64,2.26,2.93,3.93,3.85
			c1.67,0.93,3.53,1.39,5.58,1.39C478.05,205.36,479.9,204.9,481.55,203.97z"/>
		<path class="st0" d="M513.46,207.59l-5.93-8.34c-0.67,0.07-1.36,0.11-2.08,0.11h-6.97v8.23h-2.74v-25.94h9.71
			c3.31,0,5.9,0.79,7.78,2.37c1.88,1.58,2.82,3.76,2.82,6.52c0,2.03-0.51,3.74-1.54,5.13c-1.03,1.4-2.49,2.4-4.39,3.02l6.34,8.89
			H513.46z M511.27,195.32c1.36-1.14,2.04-2.73,2.04-4.78c0-2.1-0.68-3.71-2.04-4.84c-1.36-1.12-3.32-1.69-5.89-1.69h-6.89v13.01
			h6.89C507.95,197.03,509.91,196.46,511.27,195.32z"/>
	</g>
	<g>
		<g>
			<path class="st0" d="M216.26,123.94v-7.12c-3.69,4.17-10.56,8.59-20.5,8.59c-13.5,0-19.52-7.61-19.52-18.54V64.65h18.9v34.49
				c0,7.12,3.68,9.58,9.82,9.58c5.4,0,9.08-2.95,11.3-5.77v-38.3h18.9v59.29H216.26z M210.24,55.69h-12.76l15.59-17.68h16.69
				L210.24,55.69z"/>
			<path class="st0" d="M289.04,123.94V89.69c0-7.24-3.81-9.82-9.7-9.82c-5.65,0-9.33,3.07-11.54,5.77v38.3h-18.9V64.65h18.9v7.24
				c3.56-4.17,10.56-8.72,20.5-8.72c13.5,0,19.64,7.85,19.64,18.78v41.98H289.04z"/>
			<path class="st0" d="M320.34,48.45c0-6.01,4.78-10.8,10.8-10.8c6.02,0,10.8,4.79,10.8,10.8c0,6.02-4.79,10.92-10.8,10.92
				C325.13,59.37,320.34,54.46,320.34,48.45z M321.69,123.94V64.65h18.91v59.29H321.69z"/>
			<path class="st0" d="M358.27,107.98V81.1h-9.82V64.65h9.82v-16.2h18.78v16.2h12.03V81.1h-12.03v21.6c0,3.44,1.96,6.01,5.27,6.01
				c2.09,0,4.18-0.74,4.79-1.47l3.68,14.24c-2.33,2.21-7,3.93-13.99,3.93C364.77,125.41,358.27,119.4,358.27,107.98z"/>
			<path class="st0" d="M433.51,123.94v-5.89c-3.68,4.42-10.8,7.37-18.41,7.37c-9.08,0-20.38-6.14-20.38-19.52
				c0-14.36,11.29-19.03,20.38-19.03c7.86,0,14.85,2.46,18.41,6.88v-7.12c0-5.15-4.42-8.59-12.03-8.59
				c-5.89,0-12.03,2.21-16.81,6.26l-6.75-11.91c7.61-6.5,17.8-9.2,26.88-9.2c14.24,0,27.62,5.28,27.62,23.69v37.07H433.51z
				 M433.51,108.72v-5.28c-1.96-2.7-6.38-4.17-10.56-4.17c-5.03,0-9.45,2.21-9.45,6.87c0,4.67,4.42,6.87,9.45,6.87
				C427.13,113.01,431.55,111.54,433.51,108.72z"/>
			<path class="st0" d="M461.13,116.33l7.86-13.01c4.42,3.93,13.87,7.86,20.87,7.86c5.65,0,7.98-1.84,7.98-4.54
				c0-7.73-34.49-0.12-34.49-23.94c0-10.43,8.96-19.52,25.41-19.52c9.94,0,18.41,3.19,24.8,7.85l-7.24,12.52
				c-3.56-3.44-10.31-6.51-17.43-6.51c-4.42,0-7.49,1.84-7.49,4.3c0,6.87,34.49,0.12,34.49,24.43c0,11.3-9.94,19.64-27.01,19.64
				C478.31,125.41,467.39,121.85,461.13,116.33z"/>
		</g>
		<g>
			<path class="st0" d="M394.88,50.92V30.75h6.43v2.46c1.34-1.63,3.88-3.01,6.3-3.01v6.18c-0.37-0.08-0.92-0.17-1.58-0.17
				c-1.67,0-3.89,0.71-4.72,1.84v12.86H394.88z"/>
			<path class="st0" d="M409.2,40.81c0-5.85,4.43-10.57,10.73-10.57c5.97,0,10.32,4.38,10.32,11.24v1.38h-14.37
				c0.38,1.88,2.13,3.59,5.05,3.59c1.42,0,3.89-0.63,5.01-1.71l2.71,4.01c-2.01,1.8-5.34,2.67-8.43,2.67
				C414.01,51.42,409.2,47.37,409.2,40.81z M419.94,35.21c-2.8,0-3.88,2.01-4.14,3.47h8.31C423.95,37.26,422.9,35.21,419.94,35.21z"
				/>
			<path class="st0" d="M447,50.92v-2.34c-1.67,1.92-3.72,2.84-5.97,2.84c-4.97,0-8.94-3.76-8.94-10.61c0-6.6,3.88-10.57,8.94-10.57
				c2.21,0,4.35,0.88,5.97,2.88V23.06h6.39v27.86H447z M447,43.9v-6.18c-0.84-1.09-2.51-1.8-3.89-1.8c-2.54,0-4.43,1.88-4.43,4.89
				c0,3.01,1.88,4.93,4.43,4.93C444.49,45.74,446.16,44.99,447,43.9z"/>
		</g>
		<path class="st0" d="M129.52,120.83c5.43-7.45,8.63-16.62,8.63-26.54c0-24.92-20.2-45.12-45.12-45.12
			c-24.92,0-45.12,20.2-45.12,45.12c0,8.63,2.43,16.69,6.63,23.55l17.83-11.15c-2.25-3.68-3.56-8.01-3.56-12.64
			c0-13.38,10.85-24.22,24.22-24.22c13.38,0,24.22,10.84,24.22,24.22c0,5.32-1.95,10.79-4.86,14.79L129.52,120.83z"/>
		<path class="st0" d="M150.29,134.25c7.97-11.35,12.65-25.19,12.65-40.12c0-38.61-31.3-69.91-69.92-69.91
			c-38.61,0-69.91,31.3-69.91,69.91c0,13.62,3.89,26.33,10.63,37.08l8.34-5.29c-5.78-9.24-9.13-20.16-9.13-31.86
			c0-33.18,26.9-60.07,60.07-60.07c33.18,0,60.07,26.89,60.07,60.07c0,12.83-4.02,24.72-10.87,34.47L150.29,134.25z"/>
		<g>
			<path class="st0" d="M239.96,145.75v-16.21h4.93c2.99,0,4.5,2.23,4.5,4.86c0,2.63-1.53,4.86-4.5,4.86h-2.99v6.49H239.96z
				 M247.4,134.4c0-1.85-1.02-3.14-2.7-3.14h-2.79v6.27h2.79C246.38,137.54,247.4,136.25,247.4,134.4z"/>
			<path class="st0" d="M251.72,145.75v-11.74h1.73v1.87c0.76-1.24,1.9-2.11,3.33-2.11v1.78c-0.19-0.03-0.39-0.05-0.58-0.05
				c-1.07,0-2.26,0.92-2.75,1.92v8.34H251.72z"/>
			<path class="st0" d="M258.21,139.87c0-3.31,1.65-6.15,4.79-6.15c3.16,0,4.79,2.85,4.79,6.15c0,3.3-1.62,6.17-4.79,6.17
				C259.86,146.04,258.21,143.18,258.21,139.87z M265.96,139.87c0-2.36-0.9-4.59-2.97-4.59c-2.04,0-2.94,2.24-2.94,4.59
				c0,2.38,0.9,4.62,2.94,4.62C265.06,144.49,265.96,142.25,265.96,139.87z"/>
			<path class="st0" d="M282.29,145.75v-8.48c0-1.29-0.51-1.99-1.63-1.99c-1.07,0-2.09,0.92-2.58,1.87v8.6h-1.75v-8.48
				c0-1.26-0.48-1.99-1.63-1.99c-1.07,0-2.07,0.92-2.58,1.87v8.6h-1.72v-11.74h1.72v1.68c0.49-0.87,1.82-1.97,3.23-1.97
				c1.51,0,2.43,0.85,2.62,2.09c0.58-1.07,1.92-2.09,3.33-2.09c1.72,0,2.72,0.95,2.72,3.07v8.97H282.29z"/>
			<path class="st0" d="M286.66,139.87c0-3.31,1.65-6.15,4.79-6.15c3.16,0,4.79,2.85,4.79,6.15c0,3.3-1.63,6.17-4.79,6.17
				C288.31,146.04,286.66,143.18,286.66,139.87z M294.41,139.87c0-2.36-0.9-4.59-2.97-4.59c-2.04,0-2.94,2.24-2.94,4.59
				c0,2.38,0.9,4.62,2.94,4.62C293.51,144.49,294.41,142.25,294.41,139.87z"/>
			<path class="st0" d="M299.2,143.4v-7.85h-1.55v-1.53h1.55v-3.21h1.75v3.21h1.97v1.53h-1.97v7.53c0,0.88,0.27,1.41,0.95,1.41
				c0.44,0,0.8-0.2,1.02-0.46l0.53,1.31c-0.44,0.42-1.02,0.71-1.92,0.71C299.95,146.04,299.2,145.12,299.2,143.4z"/>
			<path class="st0" d="M304.66,139.87c0-3.31,1.65-6.15,4.79-6.15c3.16,0,4.79,2.85,4.79,6.15c0,3.3-1.63,6.17-4.79,6.17
				C306.31,146.04,304.66,143.18,304.66,139.87z M312.42,139.87c0-2.36-0.9-4.59-2.97-4.59c-2.04,0-2.94,2.24-2.94,4.59
				c0,2.38,0.9,4.62,2.94,4.62C311.52,144.49,312.42,142.25,312.42,139.87z"/>
			<path class="st0" d="M316.86,145.75v-11.74h1.72v1.87c0.75-1.24,1.9-2.11,3.33-2.11v1.78c-0.19-0.03-0.39-0.05-0.58-0.05
				c-1.07,0-2.26,0.92-2.75,1.92v8.34H316.86z"/>
			<path class="st0" d="M323.35,139.87c0-3.4,1.8-6.15,4.79-6.15c3.11,0,4.64,2.78,4.64,6.2v0.53h-7.63
				c0.08,2.36,1.29,4.13,3.4,4.13c1.02,0,2.07-0.51,2.79-1.46l0.92,1.05c-0.94,1.17-2.28,1.87-3.86,1.87
				C325.27,146.04,323.35,143.47,323.35,139.87z M328.08,135.18c-2.06,0-2.89,2.26-2.94,3.96h5.91
				C331.02,137.37,330.25,135.18,328.08,135.18z"/>
			<path class="st0" d="M334.37,144.37l0.88-1.22c0.68,0.83,1.8,1.48,3.06,1.48c1.39,0,2.26-0.78,2.26-1.89
				c0-2.75-5.86-1.78-5.86-5.86c0-1.75,1.41-3.16,3.74-3.16c1.58,0,2.77,0.61,3.6,1.51l-0.83,1.19c-0.58-0.78-1.58-1.29-2.75-1.29
				c-1.29,0-2.09,0.75-2.09,1.7c0,2.5,5.88,1.63,5.88,5.86c0,1.94-1.51,3.35-3.91,3.35C336.68,146.04,335.35,145.51,334.37,144.37z"
				/>
			<path class="st0" d="M358.53,145.75l-1.04-3.67h-5.79l-1.05,3.67h-2.09l4.88-16.21h2.31l4.86,16.21H358.53z M354.59,131.68
				l-2.47,8.67h4.95L354.59,131.68z"/>
			<path class="st0" d="M361.46,144.37l0.88-1.22c0.68,0.83,1.8,1.48,3.06,1.48c1.38,0,2.26-0.78,2.26-1.89
				c0-2.75-5.86-1.78-5.86-5.86c0-1.75,1.41-3.16,3.74-3.16c1.58,0,2.77,0.61,3.6,1.51l-0.83,1.19c-0.58-0.78-1.58-1.29-2.75-1.29
				c-1.29,0-2.09,0.75-2.09,1.7c0,2.5,5.88,1.63,5.88,5.86c0,1.94-1.51,3.35-3.91,3.35C363.77,146.04,362.43,145.51,361.46,144.37z"
				/>
			<path class="st0" d="M371.26,139.87c0-3.31,1.65-6.15,4.79-6.15c3.16,0,4.79,2.85,4.79,6.15c0,3.3-1.63,6.17-4.79,6.17
				C372.91,146.04,371.26,143.18,371.26,139.87z M379.01,139.87c0-2.36-0.9-4.59-2.97-4.59c-2.04,0-2.94,2.24-2.94,4.59
				c0,2.38,0.9,4.62,2.94,4.62C378.11,144.49,379.01,142.25,379.01,139.87z"/>
			<path class="st0" d="M382.87,139.87c0-3.48,1.85-6.15,4.88-6.15c1.63,0,2.62,0.66,3.35,1.56l-0.95,1.19
				c-0.63-0.85-1.36-1.19-2.26-1.19c-2.09,0-3.21,2.09-3.21,4.59c0,2.5,1.12,4.62,3.21,4.62c0.9,0,1.63-0.36,2.26-1.19l0.95,1.19
				c-0.73,0.92-1.73,1.55-3.35,1.55C384.72,146.04,382.87,143.35,382.87,139.87z"/>
			<path class="st0" d="M393,131.12c0-0.66,0.56-1.19,1.19-1.19c0.68,0,1.19,0.54,1.19,1.19c0,0.65-0.51,1.19-1.19,1.19
				C393.56,132.31,393,131.78,393,131.12z M393.34,145.75v-11.74h1.73v11.74H393.34z"/>
			<path class="st0" d="M404.3,145.75v-1.26c-0.75,1.07-1.89,1.55-3.08,1.55c-1.89,0-3.55-1.46-3.55-3.91
				c0-2.46,1.63-3.87,3.55-3.87c1.19,0,2.36,0.46,3.08,1.51v-2.04c0-1.61-0.87-2.5-2.4-2.5c-1.09,0-2.04,0.42-2.94,1.44l-0.78-1.24
				c1.12-1.17,2.5-1.7,3.98-1.7c2.33,0,3.89,1.14,3.89,3.82v8.21H404.3z M404.3,143.29v-2.23c-0.53-1-1.5-1.51-2.52-1.51
				c-1.46,0-2.33,1.14-2.33,2.6c0,1.46,0.87,2.62,2.33,2.62C402.79,144.78,403.77,144.27,404.3,143.29z"/>
			<path class="st0" d="M415.96,145.75v-1.68c-0.68,1.19-1.85,1.97-3.09,1.97c-2.65,0-4.23-2.45-4.23-6.15
				c0-3.67,1.58-6.18,4.23-6.18c1.21,0,2.38,0.68,3.09,2v-6.17h1.75v16.21H415.96z M415.96,142.59v-5.39
				c-0.44-1.02-1.53-1.92-2.65-1.92c-1.92,0-2.84,2.07-2.84,4.62c0,2.53,0.92,4.59,2.84,4.59
				C414.43,144.49,415.52,143.61,415.96,142.59z"/>
			<path class="st0" d="M420.33,139.87c0-3.31,1.66-6.15,4.79-6.15c3.15,0,4.78,2.85,4.78,6.15c0,3.3-1.63,6.17-4.78,6.17
				C421.99,146.04,420.33,143.18,420.33,139.87z M428.08,139.87c0-2.36-0.9-4.59-2.96-4.59c-2.04,0-2.94,2.24-2.94,4.59
				c0,2.38,0.9,4.62,2.94,4.62C427.18,144.49,428.08,142.25,428.08,139.87z"/>
			<path class="st0" d="M431.58,144.37l0.87-1.22c0.68,0.83,1.8,1.48,3.07,1.48c1.38,0,2.26-0.78,2.26-1.89
				c0-2.75-5.86-1.78-5.86-5.86c0-1.75,1.41-3.16,3.74-3.16c1.58,0,2.77,0.61,3.6,1.51l-0.83,1.19c-0.58-0.78-1.58-1.29-2.75-1.29
				c-1.29,0-2.09,0.75-2.09,1.7c0,2.5,5.88,1.63,5.88,5.86c0,1.94-1.51,3.35-3.91,3.35C433.89,146.04,432.55,145.51,431.58,144.37z"
				/>
			<path class="st0" d="M447.27,145.75v-16.21h4.33c4.23,0,6.56,3.5,6.56,8.12c0,4.64-2.33,8.09-6.56,8.09H447.27z M456.14,137.66
				c0-3.67-1.51-6.39-4.54-6.39h-2.38v12.76h2.38C454.62,144.03,456.14,141.3,456.14,137.66z"/>
			<path class="st0" d="M460.57,131.12c0-0.66,0.56-1.19,1.19-1.19c0.68,0,1.19,0.54,1.19,1.19c0,0.65-0.51,1.19-1.19,1.19
				C461.12,132.31,460.57,131.78,460.57,131.12z M460.91,145.75v-11.74h1.72v11.74H460.91z"/>
			<path class="st0" d="M465.84,145.75v-11.74h1.72v1.87c0.76-1.24,1.9-2.11,3.33-2.11v1.78c-0.19-0.03-0.39-0.05-0.58-0.05
				c-1.07,0-2.26,0.92-2.75,1.92v8.34H465.84z"/>
			<path class="st0" d="M472.32,139.87c0-3.4,1.8-6.15,4.79-6.15c3.11,0,4.64,2.78,4.64,6.2v0.53h-7.63
				c0.07,2.36,1.29,4.13,3.4,4.13c1.02,0,2.07-0.51,2.79-1.46l0.93,1.05c-0.95,1.17-2.29,1.87-3.87,1.87
				C474.24,146.04,472.32,143.47,472.32,139.87z M477.06,135.18c-2.07,0-2.89,2.26-2.94,3.96h5.91
				C480,137.37,479.22,135.18,477.06,135.18z"/>
			<path class="st0" d="M483.71,139.87c0-3.48,1.85-6.15,4.89-6.15c1.63,0,2.62,0.66,3.35,1.56l-0.95,1.19
				c-0.63-0.85-1.36-1.19-2.26-1.19c-2.09,0-3.21,2.09-3.21,4.59c0,2.5,1.12,4.62,3.21,4.62c0.9,0,1.63-0.36,2.26-1.19l0.95,1.19
				c-0.73,0.92-1.72,1.55-3.35,1.55C485.56,146.04,483.71,143.35,483.71,139.87z"/>
			<path class="st0" d="M494.53,143.4v-7.85h-1.56v-1.53h1.56v-3.21h1.75v3.21h1.97v1.53h-1.97v7.53c0,0.88,0.27,1.41,0.95,1.41
				c0.44,0,0.8-0.2,1.02-0.46l0.53,1.31c-0.44,0.42-1.02,0.71-1.92,0.71C495.28,146.04,494.53,145.12,494.53,143.4z"/>
			<path class="st0" d="M499.99,139.87c0-3.31,1.65-6.15,4.79-6.15c3.16,0,4.79,2.85,4.79,6.15c0,3.3-1.63,6.17-4.79,6.17
				C501.65,146.04,499.99,143.18,499.99,139.87z M507.75,139.87c0-2.36-0.9-4.59-2.97-4.59c-2.04,0-2.94,2.24-2.94,4.59
				c0,2.38,0.9,4.62,2.94,4.62C506.85,144.49,507.75,142.25,507.75,139.87z"/>
			<path class="st0" d="M511.24,144.37l0.87-1.22c0.68,0.83,1.8,1.48,3.06,1.48c1.39,0,2.26-0.78,2.26-1.89
				c0-2.75-5.86-1.78-5.86-5.86c0-1.75,1.41-3.16,3.74-3.16c1.58,0,2.77,0.61,3.6,1.51l-0.83,1.19c-0.58-0.78-1.58-1.29-2.75-1.29
				c-1.29,0-2.09,0.75-2.09,1.7c0,2.5,5.88,1.63,5.88,5.86c0,1.94-1.51,3.35-3.91,3.35C513.55,146.04,512.22,145.51,511.24,144.37z"
				/>
		</g>
	</g>
</g>
</svg>
