<?xml version="1.0" encoding="utf-8"?>
<!-- Generator: Adobe Illustrator 25.0.1, SVG Export Plug-In . SVG Version: 6.00 Build 0)  -->
<svg version="1.1" id="Layer_1" xmlns="http://www.w3.org/2000/svg" xmlns:xlink="http://www.w3.org/1999/xlink" x="0px" y="0px"
	 viewBox="0 0 542.26 76" style="enable-background:new 0 0 542.26 76;" xml:space="preserve">
<style type="text/css">
	.st0{fill:#FFFFFF;}
</style>
<g>
	<path class="st0" d="M62.42,19.51v37.96h-3.85V27.11L43.66,52.64h-1.9L26.85,27.27v30.2H23V19.51h3.31l16.48,28.14L59.1,19.51
		H62.42z"/>
	<path class="st0" d="M78.58,53.56c-2.75-2.82-4.13-6.92-4.13-12.31V19.51h4.01V41.1c0,4.4,1,7.7,2.99,9.86
		c1.99,2.17,4.86,3.25,8.62,3.25c3.79,0,6.69-1.08,8.68-3.25c1.99-2.17,2.99-5.46,2.99-9.86V19.51h3.91v21.74
		c0,5.38-1.36,9.48-4.1,12.31c-2.74,2.82-6.56,4.23-11.47,4.23C85.15,57.79,81.31,56.37,78.58,53.56z"/>
	<path class="st0" d="M117.72,19.51h4.01V54h21.25v3.47H117.7V19.51H117.72z"/>
	<path class="st0" d="M153.5,22.98h-13.33v-3.47h30.69v3.47h-13.33v34.49h-4.01V22.98H153.5z"/>
	<path class="st0" d="M177.25,19.51h4.01v37.96h-4.01V19.51z"/>
	<path class="st0" d="M199.94,55.29c-3.01-1.67-5.38-3.97-7.1-6.91s-2.58-6.25-2.58-9.89c0-3.64,0.86-6.95,2.58-9.89
		s4.1-5.25,7.13-6.91c3.04-1.67,6.44-2.49,10.2-2.49c2.82,0,5.43,0.47,7.81,1.4c2.39,0.94,4.4,2.31,6.07,4.13l-2.55,2.55
		c-2.97-3-6.7-4.51-11.22-4.51c-3,0-5.74,0.69-8.19,2.06s-4.39,3.25-5.78,5.63s-2.09,5.06-2.09,8.02c0,2.97,0.7,5.63,2.09,8.02
		c1.39,2.39,3.32,4.26,5.78,5.63c2.46,1.38,5.18,2.06,8.19,2.06c4.55,0,8.3-1.52,11.22-4.55l2.55,2.55c-1.67,1.81-3.7,3.19-6.1,4.14
		c-2.4,0.95-5.02,1.43-7.83,1.43C206.35,57.79,202.96,56.96,199.94,55.29z"/>
	<path class="st0" d="M238.16,55.28c-3.06-1.68-5.44-3.98-7.16-6.91s-2.58-6.22-2.58-9.86s0.86-6.94,2.58-9.86s4.1-5.24,7.16-6.91
		c3.06-1.68,6.47-2.52,10.21-2.52c3.76,0,7.14,0.83,10.17,2.49c3.03,1.65,5.4,3.97,7.13,6.91c1.74,2.94,2.6,6.25,2.6,9.89
		c0,3.66-0.86,6.95-2.6,9.89s-4.11,5.25-7.13,6.91c-3.01,1.67-6.41,2.49-10.17,2.49C244.63,57.79,241.22,56.94,238.16,55.28z
		 M256.51,52.17c2.43-1.36,4.32-3.23,5.69-5.63c1.38-2.4,2.06-5.09,2.06-8.05c0-2.96-0.69-5.65-2.06-8.05
		c-1.38-2.4-3.28-4.29-5.69-5.63c-2.43-1.36-5.14-2.03-8.14-2.03c-3,0-5.72,0.67-8.17,2.03c-2.44,1.36-4.36,3.23-5.75,5.63
		c-1.39,2.4-2.09,5.09-2.09,8.05c0,2.97,0.7,5.65,2.09,8.05c1.39,2.4,3.31,4.29,5.75,5.63c2.44,1.36,5.17,2.03,8.17,2.03
		C251.39,54.21,254.1,53.54,256.51,52.17z"/>
	<path class="st0" d="M284.13,22.98h-13.35v-3.47h30.69v3.47h-13.35v34.49h-4.01V22.98H284.13z"/>
	<path class="st0" d="M307.86,19.51h4.01v37.96h-4.01V19.51z"/>
	<path class="st0" d="M351.61,53.99v3.47h-31.12v-2.77l25.17-31.71h-24.77v-3.47h30.09v2.77L325.86,54h25.75V53.99z"/>
	<path class="st0" d="M383.34,47.33h-21.14l-4.55,10.14h-4.17l17.35-37.96h3.95l17.35,37.96h-4.23L383.34,47.33z M381.87,44.07
		l-9.12-20.38l-9.1,20.38H381.87z"/>
	<path class="st0" d="M398.41,19.51h15.45c4.01,0,7.55,0.8,10.62,2.41c3.07,1.61,5.46,3.85,7.16,6.72c1.7,2.87,2.55,6.16,2.55,9.85
		c0,3.69-0.85,6.97-2.55,9.85c-1.7,2.87-4.08,5.12-7.16,6.72c-3.07,1.61-6.61,2.41-10.62,2.41h-15.45V19.51z M413.64,53.99
		c3.32,0,6.23-0.66,8.74-1.98c2.49-1.32,4.43-3.15,5.79-5.47c1.38-2.33,2.06-5.02,2.06-8.05c0-3.03-0.69-5.72-2.06-8.05
		s-3.31-4.16-5.79-5.47c-2.49-1.32-5.4-1.98-8.74-1.98h-11.22V54h11.22V53.99z"/>
	<path class="st0" d="M449.57,55.28c-3.06-1.68-5.44-3.98-7.16-6.91s-2.58-6.22-2.58-9.86s0.86-6.94,2.58-9.86s4.1-5.24,7.16-6.91
		c3.06-1.68,6.47-2.52,10.21-2.52c3.76,0,7.14,0.83,10.17,2.49c3.03,1.65,5.4,3.97,7.13,6.91c1.74,2.94,2.6,6.25,2.6,9.89
		c0,3.66-0.86,6.95-2.6,9.89c-1.74,2.94-4.11,5.25-7.13,6.91c-3.01,1.67-6.41,2.49-10.17,2.49
		C456.03,57.79,452.62,56.94,449.57,55.28z M467.92,52.17c2.43-1.36,4.32-3.23,5.69-5.63c1.38-2.4,2.06-5.09,2.06-8.05
		c0-2.96-0.69-5.65-2.06-8.05c-1.38-2.4-3.28-4.29-5.69-5.63c-2.43-1.36-5.14-2.03-8.14-2.03s-5.72,0.67-8.17,2.03
		c-2.44,1.36-4.36,3.23-5.75,5.63c-1.39,2.4-2.09,5.09-2.09,8.05c0,2.97,0.7,5.65,2.09,8.05c1.39,2.4,3.31,4.29,5.75,5.63
		c2.44,1.36,5.17,2.03,8.17,2.03C462.79,54.21,465.5,53.54,467.92,52.17z"/>
	<path class="st0" d="M514.61,57.47l-8.68-12.2c-0.98,0.1-1.99,0.16-3.04,0.16h-10.2v12.04h-4.01V19.51h14.21
		c4.84,0,8.63,1.16,11.38,3.47c2.75,2.31,4.13,5.5,4.13,9.54c0,2.97-0.75,5.47-2.25,7.51c-1.51,2.05-3.64,3.51-6.42,4.42L519,57.46
		h-4.39V57.47z M511.41,39.52c1.99-1.67,2.99-3.99,2.99-6.99c0-3.07-1-5.43-2.99-7.08c-1.99-1.64-4.86-2.47-8.62-2.47H492.7V42
		h10.08C506.55,42.02,509.42,41.19,511.41,39.52z"/>
</g>
</svg>
